<?xml version="1.0" encoding="utf-8"?>
<!-- Generator: Adobe Illustrator 16.0.4, SVG Export Plug-In . SVG Version: 6.00 Build 0)  -->
<!DOCTYPE svg PUBLIC "-//W3C//DTD SVG 1.1//EN" "http://www.w3.org/Graphics/SVG/1.1/DTD/svg11.dtd">
<svg version="1.1" id="Layer_1" xmlns="http://www.w3.org/2000/svg" xmlns:xlink="http://www.w3.org/1999/xlink" x="0px" y="0px"
	 width="612px" height="193px" viewBox="0 299.5 612 193" enable-background="new 0 299.5 612 193" xml:space="preserve">
<g id="Layer_1_1_">
	<path fill="#1D4380" d="M0,299.368h612v193.264H0V299.368z"/>
	<g enable-background="new    ">
		<path fill="#FFFFFF" d="M188.948,380.5l-2.541-10.206h-0.042l-2.499,10.206h-3.339l-3.969-14.994h3.297l2.373,10.206h0.042
			l2.604-10.206h3.087l2.562,10.332h0.042l2.457-10.332h3.234l-4.032,14.994H188.948z"/>
		<path fill="#FFFFFF" d="M199.448,377.896c0.448,0.434,1.092,0.65,1.932,0.65c0.602,0,1.12-0.15,1.554-0.451
			c0.434-0.301,0.7-0.62,0.798-0.956h2.625c-0.42,1.303-1.064,2.233-1.932,2.793c-0.869,0.561-1.918,0.841-3.15,0.841
			c-0.854,0-1.624-0.137-2.31-0.41c-0.686-0.272-1.267-0.661-1.743-1.165c-0.476-0.504-0.844-1.106-1.103-1.807
			c-0.259-0.699-0.389-1.47-0.389-2.31c0-0.812,0.133-1.567,0.399-2.268s0.644-1.306,1.134-1.817
			c0.49-0.511,1.074-0.913,1.753-1.207c0.679-0.294,1.431-0.441,2.257-0.441c0.924,0,1.729,0.179,2.415,0.536
			c0.686,0.356,1.25,0.837,1.69,1.438c0.441,0.602,0.759,1.288,0.956,2.058c0.196,0.771,0.266,1.575,0.21,2.415h-7.833
			C198.755,376.762,199,377.462,199.448,377.896z M202.818,372.184c-0.357-0.392-0.899-0.588-1.627-0.588
			c-0.476,0-0.872,0.081-1.187,0.242s-0.567,0.36-0.756,0.598c-0.189,0.238-0.322,0.49-0.399,0.757
			c-0.077,0.266-0.123,0.504-0.137,0.714h4.851C203.424,373.15,203.176,372.576,202.818,372.184z"/>
		<path fill="#FFFFFF" d="M219.334,371.596c-0.476,0-0.875,0.109-1.197,0.326c-0.322,0.217-0.585,0.497-0.788,0.84
			c-0.203,0.343-0.346,0.721-0.431,1.134c-0.084,0.413-0.126,0.822-0.126,1.229c0,0.392,0.042,0.791,0.126,1.197
			c0.084,0.406,0.221,0.773,0.41,1.103s0.444,0.599,0.767,0.809c0.322,0.21,0.714,0.314,1.176,0.314
			c0.714,0,1.264-0.199,1.649-0.599c0.385-0.398,0.626-0.935,0.724-1.606h2.877c-0.196,1.442-0.756,2.541-1.68,3.297
			c-0.924,0.756-2.107,1.135-3.549,1.135c-0.812,0-1.558-0.137-2.236-0.41c-0.679-0.272-1.257-0.654-1.732-1.145
			c-0.476-0.489-0.847-1.074-1.113-1.753c-0.266-0.68-0.399-1.425-0.399-2.237c0-0.84,0.123-1.62,0.368-2.341
			c0.245-0.721,0.605-1.344,1.082-1.869c0.476-0.525,1.057-0.935,1.743-1.229c0.686-0.294,1.47-0.441,2.352-0.441
			c0.644,0,1.264,0.084,1.859,0.252c0.595,0.168,1.126,0.424,1.596,0.767c0.469,0.344,0.851,0.771,1.145,1.281
			c0.294,0.512,0.462,1.116,0.504,1.816h-2.919C221.343,372.219,220.608,371.596,219.334,371.596z"/>
		<path fill="#FFFFFF" d="M226.075,372.982c0.042-0.7,0.217-1.281,0.525-1.743c0.308-0.462,0.7-0.833,1.176-1.113
			c0.476-0.28,1.011-0.479,1.606-0.599c0.595-0.118,1.193-0.179,1.795-0.179c0.546,0,1.099,0.039,1.659,0.116
			c0.56,0.077,1.071,0.228,1.533,0.451c0.462,0.224,0.84,0.535,1.134,0.935c0.294,0.398,0.441,0.928,0.441,1.585v5.649
			c0,0.49,0.028,0.959,0.084,1.407c0.056,0.448,0.154,0.784,0.294,1.008h-3.024c-0.056-0.168-0.102-0.339-0.136-0.515
			c-0.035-0.175-0.06-0.354-0.074-0.535c-0.476,0.49-1.036,0.833-1.68,1.028c-0.644,0.196-1.302,0.295-1.974,0.295
			c-0.518,0-1.001-0.063-1.449-0.189c-0.448-0.126-0.84-0.322-1.176-0.588s-0.599-0.602-0.788-1.008s-0.284-0.89-0.284-1.449
			c0-0.616,0.108-1.124,0.326-1.522c0.217-0.399,0.497-0.718,0.84-0.956c0.343-0.237,0.735-0.416,1.176-0.535
			c0.441-0.119,0.885-0.213,1.333-0.283c0.448-0.07,0.889-0.126,1.323-0.168s0.819-0.105,1.155-0.189
			c0.336-0.084,0.602-0.206,0.798-0.367c0.196-0.161,0.287-0.396,0.273-0.703c0-0.322-0.053-0.578-0.158-0.767
			c-0.105-0.189-0.245-0.336-0.42-0.441c-0.175-0.104-0.378-0.175-0.609-0.21s-0.479-0.053-0.746-0.053
			c-0.588,0-1.05,0.126-1.386,0.378s-0.532,0.672-0.588,1.261H226.075z M232.963,375.187c-0.126,0.112-0.284,0.2-0.473,0.263
			c-0.189,0.063-0.392,0.116-0.609,0.158c-0.217,0.042-0.444,0.077-0.683,0.104c-0.238,0.028-0.476,0.063-0.714,0.105
			c-0.224,0.042-0.444,0.098-0.662,0.168s-0.406,0.164-0.567,0.283c-0.161,0.119-0.291,0.27-0.389,0.451
			c-0.098,0.183-0.147,0.413-0.147,0.693c0,0.266,0.049,0.49,0.147,0.672c0.098,0.183,0.231,0.325,0.399,0.431
			c0.168,0.104,0.364,0.179,0.588,0.221c0.224,0.042,0.455,0.062,0.693,0.062c0.588,0,1.043-0.098,1.365-0.294
			c0.322-0.195,0.56-0.431,0.714-0.703c0.154-0.273,0.249-0.55,0.283-0.83c0.035-0.279,0.053-0.504,0.053-0.672V375.187z"/>
		<path fill="#FFFFFF" d="M241.09,369.643v1.513h0.063c0.378-0.63,0.868-1.089,1.47-1.376c0.602-0.286,1.218-0.431,1.848-0.431
			c0.798,0,1.452,0.109,1.963,0.326c0.511,0.217,0.914,0.518,1.208,0.902c0.294,0.386,0.5,0.854,0.62,1.407
			c0.119,0.554,0.178,1.166,0.178,1.838v6.678h-2.982v-6.132c0-0.896-0.14-1.564-0.42-2.006c-0.28-0.44-0.777-0.661-1.491-0.661
			c-0.812,0-1.4,0.241-1.764,0.725c-0.364,0.482-0.546,1.277-0.546,2.383v5.691h-2.982v-10.857H241.09z"/>
		<path fill="#FFFFFF" d="M253.984,365.506v3.213c0.014,0.462-0.053,0.896-0.2,1.303c-0.147,0.405-0.354,0.763-0.62,1.07
			c-0.266,0.309-0.584,0.563-0.955,0.767c-0.372,0.203-0.774,0.333-1.208,0.389v-1.386c0.532-0.182,0.896-0.452,1.092-0.809
			c0.196-0.357,0.294-0.795,0.294-1.312h-1.386v-3.234H253.984z"/>
		<path fill="#FFFFFF" d="M262.132,369.643v1.995h-2.184v5.376c0,0.504,0.084,0.84,0.252,1.009c0.168,0.168,0.504,0.252,1.008,0.252
			c0.168,0,0.329-0.007,0.483-0.021c0.154-0.014,0.301-0.035,0.441-0.062v2.31c-0.252,0.042-0.532,0.07-0.84,0.084
			s-0.609,0.021-0.903,0.021c-0.462,0-0.9-0.032-1.312-0.095c-0.413-0.063-0.777-0.186-1.092-0.368
			c-0.315-0.182-0.564-0.44-0.746-0.776c-0.182-0.336-0.273-0.777-0.273-1.323v-6.405h-1.806v-1.995h1.806v-3.255h2.982v3.255
			H262.132z"/>
		<path fill="#FFFFFF" d="M278.743,380.5l-1.932-7.287h-0.042l-1.848,7.287h-3.087l-3.444-10.857h3.15l1.995,7.371h0.042
			l1.806-7.371h2.898l1.848,7.351h0.042l1.995-7.351h3.066l-3.423,10.857H278.743z"/>
		<path fill="#FFFFFF" d="M289.327,369.643v2.017h0.042c0.14-0.336,0.329-0.647,0.567-0.935c0.238-0.287,0.511-0.532,0.819-0.735
			c0.308-0.202,0.637-0.36,0.987-0.473c0.35-0.111,0.714-0.168,1.092-0.168c0.196,0,0.413,0.035,0.651,0.105v2.771
			c-0.14-0.027-0.308-0.052-0.504-0.073c-0.196-0.021-0.385-0.031-0.567-0.031c-0.546,0-1.008,0.091-1.386,0.272
			c-0.378,0.183-0.683,0.431-0.914,0.746c-0.231,0.314-0.396,0.683-0.493,1.103c-0.098,0.42-0.147,0.875-0.147,1.365v4.893h-2.982
			v-10.857H289.327z"/>
		<path fill="#FFFFFF" d="M294.745,367.963v-2.457h2.982v2.457H294.745z M297.727,369.643V380.5h-2.982v-10.857H297.727z"/>
		<path fill="#FFFFFF" d="M306.043,369.643v1.995h-2.184v5.376c0,0.504,0.084,0.84,0.252,1.009c0.168,0.168,0.504,0.252,1.008,0.252
			c0.168,0,0.329-0.007,0.483-0.021c0.154-0.014,0.301-0.035,0.441-0.062v2.31c-0.252,0.042-0.532,0.07-0.84,0.084
			s-0.609,0.021-0.903,0.021c-0.462,0-0.9-0.032-1.312-0.095c-0.413-0.063-0.777-0.186-1.092-0.368
			c-0.315-0.182-0.564-0.44-0.746-0.776c-0.182-0.336-0.273-0.777-0.273-1.323v-6.405h-1.806v-1.995h1.806v-3.255h2.982v3.255
			H306.043z"/>
		<path fill="#FFFFFF" d="M310.662,377.896c0.448,0.434,1.092,0.65,1.932,0.65c0.603,0,1.121-0.15,1.555-0.451
			s0.699-0.62,0.798-0.956h2.625c-0.42,1.303-1.063,2.233-1.932,2.793c-0.868,0.561-1.919,0.841-3.15,0.841
			c-0.854,0-1.624-0.137-2.31-0.41c-0.687-0.272-1.268-0.661-1.743-1.165s-0.844-1.106-1.103-1.807
			c-0.26-0.699-0.389-1.47-0.389-2.31c0-0.812,0.133-1.567,0.398-2.268c0.267-0.7,0.645-1.306,1.135-1.817
			c0.49-0.511,1.074-0.913,1.754-1.207c0.678-0.294,1.431-0.441,2.257-0.441c0.925,0,1.729,0.179,2.415,0.536
			c0.686,0.356,1.25,0.837,1.69,1.438c0.441,0.602,0.759,1.288,0.956,2.058c0.195,0.771,0.266,1.575,0.209,2.415h-7.832
			C309.969,376.762,310.215,377.462,310.662,377.896z M314.033,372.184c-0.357-0.392-0.9-0.588-1.628-0.588
			c-0.476,0-0.872,0.081-1.187,0.242s-0.566,0.36-0.756,0.598c-0.189,0.238-0.322,0.49-0.398,0.757
			c-0.078,0.266-0.123,0.504-0.137,0.714h4.851C314.639,373.15,314.391,372.576,314.033,372.184z"/>
		<path fill="#FFFFFF" d="M329.373,383.734c-0.574,0.378-1.371,0.566-2.394,0.566c-0.308,0-0.612-0.011-0.913-0.031
			c-0.302-0.021-0.605-0.046-0.914-0.073v-2.457c0.28,0.027,0.567,0.056,0.861,0.084c0.294,0.027,0.588,0.034,0.882,0.021
			c0.392-0.042,0.683-0.196,0.872-0.462c0.188-0.266,0.283-0.56,0.283-0.882c0-0.238-0.043-0.462-0.127-0.672l-3.801-10.186h3.172
			l2.457,7.435h0.041l2.373-7.435h3.088l-4.537,12.201C330.396,382.726,329.947,383.356,329.373,383.734z"/>
		<path fill="#FFFFFF" d="M336.324,372.72c0.266-0.707,0.645-1.31,1.135-1.807c0.489-0.496,1.077-0.882,1.764-1.154
			c0.686-0.273,1.455-0.41,2.31-0.41s1.628,0.137,2.321,0.41c0.692,0.272,1.283,0.658,1.773,1.154c0.49,0.497,0.868,1.1,1.135,1.807
			c0.266,0.707,0.398,1.494,0.398,2.362s-0.133,1.652-0.398,2.352c-0.267,0.7-0.645,1.299-1.135,1.796s-1.081,0.879-1.773,1.145
			c-0.693,0.266-1.467,0.399-2.321,0.399s-1.624-0.134-2.31-0.399c-0.687-0.266-1.274-0.647-1.764-1.145
			c-0.49-0.497-0.869-1.096-1.135-1.796c-0.266-0.699-0.398-1.483-0.398-2.352S336.059,373.427,336.324,372.72z M339.033,376.353
			c0.084,0.413,0.228,0.784,0.431,1.113c0.202,0.329,0.473,0.591,0.809,0.787s0.756,0.294,1.26,0.294
			c0.505,0,0.928-0.098,1.271-0.294c0.344-0.196,0.616-0.458,0.819-0.787c0.202-0.329,0.347-0.7,0.431-1.113
			s0.125-0.837,0.125-1.271s-0.041-0.861-0.125-1.281s-0.229-0.791-0.431-1.112c-0.203-0.322-0.476-0.585-0.819-0.788
			c-0.343-0.203-0.766-0.305-1.271-0.305c-0.504,0-0.924,0.102-1.26,0.305s-0.606,0.466-0.809,0.788
			c-0.203,0.321-0.347,0.692-0.431,1.112s-0.126,0.848-0.126,1.281S338.949,375.939,339.033,376.353z"/>
		<path fill="#FFFFFF" d="M356.441,380.5v-1.512h-0.062c-0.378,0.63-0.868,1.085-1.47,1.364c-0.603,0.28-1.218,0.421-1.849,0.421
			c-0.797,0-1.452-0.105-1.963-0.315c-0.512-0.21-0.914-0.507-1.207-0.893c-0.295-0.385-0.502-0.854-0.62-1.407
			c-0.119-0.553-0.179-1.165-0.179-1.837v-6.679h2.982v6.133c0,0.896,0.14,1.564,0.42,2.005c0.279,0.441,0.777,0.662,1.49,0.662
			c0.812,0,1.4-0.242,1.765-0.725c0.364-0.483,0.546-1.277,0.546-2.384v-5.691h2.982V380.5H356.441z"/>
		<path fill="#FFFFFF" d="M364.38,369.643v2.017h0.042c0.14-0.336,0.328-0.647,0.566-0.935s0.512-0.532,0.819-0.735
			c0.308-0.202,0.637-0.36,0.987-0.473c0.35-0.111,0.714-0.168,1.092-0.168c0.195,0,0.412,0.035,0.65,0.105v2.771
			c-0.14-0.027-0.308-0.052-0.504-0.073c-0.195-0.021-0.385-0.031-0.566-0.031c-0.547,0-1.008,0.091-1.387,0.272
			c-0.377,0.183-0.682,0.431-0.913,0.746c-0.231,0.314-0.396,0.683-0.493,1.103s-0.146,0.875-0.146,1.365v4.893h-2.982v-10.857
			H364.38z"/>
		<path fill="#FFFFFF" d="M378.387,369.643v1.513h0.062c0.379-0.63,0.868-1.089,1.471-1.376c0.602-0.286,1.218-0.431,1.848-0.431
			c0.798,0,1.452,0.109,1.963,0.326c0.512,0.217,0.914,0.518,1.208,0.902c0.294,0.386,0.501,0.854,0.62,1.407
			c0.118,0.554,0.178,1.166,0.178,1.838v6.678h-2.982v-6.132c0-0.896-0.14-1.564-0.42-2.006c-0.279-0.44-0.776-0.661-1.49-0.661
			c-0.812,0-1.4,0.241-1.764,0.725c-0.365,0.482-0.547,1.277-0.547,2.383v5.691h-2.982v-10.857H378.387z"/>
		<path fill="#FFFFFF" d="M388.066,372.72c0.267-0.707,0.645-1.31,1.135-1.807c0.49-0.496,1.078-0.882,1.764-1.154
			c0.686-0.273,1.456-0.41,2.311-0.41c0.854,0,1.627,0.137,2.32,0.41c0.693,0.272,1.284,0.658,1.774,1.154
			c0.489,0.497,0.868,1.1,1.134,1.807s0.399,1.494,0.399,2.362s-0.134,1.652-0.399,2.352c-0.266,0.7-0.645,1.299-1.134,1.796
			c-0.49,0.497-1.081,0.879-1.774,1.145s-1.467,0.399-2.32,0.399c-0.854,0-1.625-0.134-2.311-0.399s-1.273-0.647-1.764-1.145
			s-0.868-1.096-1.135-1.796c-0.266-0.699-0.398-1.483-0.398-2.352S387.801,373.427,388.066,372.72z M390.775,376.353
			c0.085,0.413,0.229,0.784,0.432,1.113c0.202,0.329,0.473,0.591,0.809,0.787s0.756,0.294,1.26,0.294s0.928-0.098,1.27-0.294
			c0.344-0.196,0.617-0.458,0.82-0.787c0.202-0.329,0.346-0.7,0.43-1.113s0.126-0.837,0.126-1.271s-0.042-0.861-0.126-1.281
			s-0.228-0.791-0.43-1.112c-0.203-0.322-0.477-0.585-0.82-0.788c-0.342-0.203-0.766-0.305-1.27-0.305s-0.924,0.102-1.26,0.305
			s-0.606,0.466-0.809,0.788c-0.203,0.321-0.347,0.692-0.432,1.112c-0.084,0.42-0.125,0.848-0.125,1.281
			S390.691,375.939,390.775,376.353z"/>
		<path fill="#FFFFFF" d="M403.523,380.5l-3.717-10.857h3.129l2.289,7.413h0.041l2.289-7.413h2.961l-3.674,10.857H403.523z"/>
		<path fill="#FFFFFF" d="M414.947,377.896c0.447,0.434,1.092,0.65,1.932,0.65c0.602,0,1.12-0.15,1.555-0.451
			c0.434-0.301,0.699-0.62,0.797-0.956h2.625c-0.42,1.303-1.063,2.233-1.932,2.793c-0.868,0.561-1.918,0.841-3.15,0.841
			c-0.854,0-1.623-0.137-2.31-0.41c-0.687-0.272-1.267-0.661-1.743-1.165c-0.476-0.504-0.844-1.106-1.102-1.807
			c-0.26-0.699-0.389-1.47-0.389-2.31c0-0.812,0.133-1.567,0.398-2.268s0.645-1.306,1.135-1.817
			c0.489-0.511,1.074-0.913,1.753-1.207s1.431-0.441,2.257-0.441c0.925,0,1.729,0.179,2.416,0.536
			c0.686,0.356,1.249,0.837,1.689,1.438c0.441,0.602,0.76,1.288,0.956,2.058c0.196,0.771,0.267,1.575,0.21,2.415h-7.833
			C414.254,376.762,414.499,377.462,414.947,377.896z M418.317,372.184c-0.356-0.392-0.899-0.588-1.628-0.588
			c-0.476,0-0.871,0.081-1.186,0.242c-0.315,0.161-0.567,0.36-0.756,0.598c-0.189,0.238-0.322,0.49-0.399,0.757
			c-0.077,0.266-0.122,0.504-0.137,0.714h4.851C418.923,373.15,418.675,372.576,418.317,372.184z"/>
		<path fill="#FFFFFF" d="M426.875,365.506V380.5h-2.982v-14.994H426.875z"/>
		<path fill="#FFFFFF" d="M432.65,377.266v3.234h-3.298v-3.234H432.65z"/>
	</g>
	<g enable-background="new    ">
		<path fill="#FFFFFF" d="M182.312,390.706c0.714,0,1.365,0.063,1.953,0.189s1.092,0.332,1.512,0.619
			c0.42,0.287,0.745,0.669,0.976,1.145c0.231,0.477,0.347,1.064,0.347,1.764c0,0.756-0.171,1.387-0.515,1.891
			s-0.85,0.917-1.522,1.238c0.924,0.267,1.614,0.732,2.069,1.396c0.455,0.666,0.682,1.467,0.682,2.405
			c0,0.756-0.147,1.41-0.441,1.963c-0.294,0.554-0.689,1.005-1.187,1.354c-0.497,0.351-1.064,0.609-1.701,0.777
			c-0.637,0.168-1.292,0.252-1.964,0.252h-7.266v-14.994H182.312z M181.892,396.775c0.588,0,1.071-0.14,1.449-0.42
			c0.378-0.28,0.567-0.735,0.567-1.365c0-0.35-0.063-0.637-0.189-0.861c-0.126-0.224-0.294-0.398-0.504-0.524
			s-0.452-0.214-0.725-0.263s-0.557-0.073-0.851-0.073h-3.087v3.507H181.892z M182.081,403.139c0.322,0,0.63-0.032,0.924-0.095
			c0.294-0.063,0.553-0.168,0.777-0.315c0.224-0.146,0.402-0.347,0.536-0.599c0.133-0.252,0.199-0.573,0.199-0.966
			c0-0.77-0.217-1.319-0.651-1.648c-0.434-0.329-1.008-0.493-1.722-0.493h-3.591v4.116H182.081z"/>
		<path fill="#FFFFFF" d="M197.075,405.7v-1.512h-0.063c-0.378,0.63-0.868,1.085-1.47,1.364c-0.602,0.28-1.218,0.421-1.848,0.421
			c-0.798,0-1.453-0.105-1.963-0.315c-0.511-0.21-0.914-0.507-1.208-0.893c-0.294-0.385-0.501-0.854-0.62-1.407
			c-0.119-0.553-0.179-1.165-0.179-1.837v-6.679h2.982v6.133c0,0.896,0.14,1.564,0.42,2.005c0.28,0.441,0.777,0.662,1.491,0.662
			c0.812,0,1.4-0.242,1.764-0.725c0.364-0.483,0.546-1.277,0.546-2.384v-5.691h2.982V405.7H197.075z"/>
		<path fill="#FFFFFF" d="M208.142,394.843v1.995h-2.184v5.376c0,0.504,0.084,0.84,0.252,1.009c0.168,0.168,0.504,0.252,1.008,0.252
			c0.168,0,0.329-0.007,0.483-0.021c0.154-0.014,0.301-0.035,0.441-0.062v2.31c-0.252,0.042-0.532,0.07-0.84,0.084
			s-0.609,0.021-0.903,0.021c-0.462,0-0.9-0.032-1.312-0.095c-0.413-0.063-0.777-0.186-1.092-0.368
			c-0.315-0.182-0.564-0.44-0.746-0.776c-0.182-0.336-0.273-0.777-0.273-1.323v-6.405h-1.806v-1.995h1.806v-3.255h2.982v3.255
			H208.142z"/>
		<path fill="#FFFFFF" d="M224.752,405.7l-1.932-7.287h-0.042l-1.848,7.287h-3.087l-3.444-10.857h3.15l1.995,7.371h0.042
			l1.806-7.371h2.898l1.848,7.351h0.042l1.995-7.351h3.066l-3.423,10.857H224.752z"/>
		<path fill="#FFFFFF" d="M235.694,403.097c0.448,0.434,1.092,0.65,1.932,0.65c0.602,0,1.12-0.15,1.554-0.451
			c0.434-0.301,0.7-0.62,0.798-0.956h2.625c-0.42,1.303-1.064,2.233-1.932,2.793c-0.869,0.561-1.918,0.841-3.15,0.841
			c-0.854,0-1.624-0.137-2.31-0.41c-0.686-0.272-1.267-0.661-1.743-1.165c-0.476-0.504-0.844-1.106-1.103-1.807
			c-0.259-0.699-0.389-1.47-0.389-2.31c0-0.812,0.133-1.567,0.399-2.268s0.644-1.306,1.134-1.817
			c0.49-0.511,1.074-0.913,1.753-1.207c0.679-0.294,1.431-0.441,2.257-0.441c0.924,0,1.729,0.179,2.415,0.536
			c0.686,0.356,1.25,0.837,1.69,1.438c0.441,0.602,0.759,1.288,0.956,2.058c0.196,0.771,0.266,1.575,0.21,2.415h-7.833
			C235,401.962,235.246,402.662,235.694,403.097z M239.064,397.384c-0.357-0.392-0.899-0.588-1.627-0.588
			c-0.476,0-0.872,0.081-1.187,0.242s-0.567,0.36-0.756,0.598c-0.189,0.238-0.322,0.49-0.399,0.757
			c-0.077,0.266-0.123,0.504-0.137,0.714h4.851C239.669,398.351,239.421,397.776,239.064,397.384z"/>
		<path fill="#FFFFFF" d="M255.58,396.796c-0.476,0-0.875,0.109-1.197,0.326c-0.322,0.217-0.585,0.497-0.788,0.84
			c-0.203,0.343-0.346,0.721-0.431,1.134c-0.084,0.413-0.126,0.822-0.126,1.229c0,0.392,0.042,0.791,0.126,1.197
			c0.084,0.406,0.221,0.773,0.41,1.103s0.444,0.599,0.767,0.809c0.322,0.21,0.714,0.314,1.176,0.314
			c0.714,0,1.264-0.199,1.649-0.599c0.385-0.398,0.626-0.935,0.724-1.606h2.877c-0.196,1.442-0.756,2.541-1.68,3.297
			c-0.924,0.756-2.107,1.135-3.549,1.135c-0.812,0-1.558-0.137-2.236-0.41c-0.679-0.272-1.257-0.654-1.732-1.145
			c-0.476-0.489-0.847-1.074-1.113-1.753c-0.266-0.68-0.399-1.425-0.399-2.237c0-0.84,0.123-1.62,0.368-2.341
			c0.245-0.721,0.605-1.344,1.082-1.869c0.476-0.525,1.057-0.935,1.743-1.229c0.686-0.294,1.47-0.441,2.352-0.441
			c0.644,0,1.264,0.084,1.859,0.252c0.595,0.168,1.126,0.424,1.596,0.767c0.469,0.344,0.851,0.771,1.145,1.281
			c0.294,0.512,0.462,1.116,0.504,1.816h-2.919C257.589,397.419,256.854,396.796,255.58,396.796z"/>
		<path fill="#FFFFFF" d="M262.321,398.183c0.042-0.7,0.217-1.281,0.525-1.743c0.308-0.462,0.7-0.833,1.176-1.113
			c0.476-0.28,1.011-0.479,1.606-0.599c0.595-0.118,1.193-0.179,1.795-0.179c0.546,0,1.099,0.039,1.659,0.116
			c0.56,0.077,1.071,0.228,1.533,0.451c0.462,0.224,0.84,0.535,1.134,0.935c0.294,0.398,0.441,0.928,0.441,1.585v5.649
			c0,0.49,0.028,0.959,0.084,1.407c0.056,0.448,0.154,0.784,0.294,1.008h-3.024c-0.056-0.168-0.102-0.339-0.136-0.515
			c-0.035-0.175-0.06-0.354-0.074-0.535c-0.476,0.49-1.036,0.833-1.68,1.028c-0.644,0.196-1.302,0.295-1.974,0.295
			c-0.518,0-1.001-0.063-1.449-0.189c-0.448-0.126-0.84-0.322-1.176-0.588s-0.599-0.602-0.788-1.008s-0.284-0.89-0.284-1.449
			c0-0.616,0.108-1.124,0.326-1.522c0.217-0.399,0.497-0.718,0.84-0.956c0.343-0.237,0.735-0.416,1.176-0.535
			c0.441-0.119,0.885-0.213,1.333-0.283c0.448-0.07,0.889-0.126,1.323-0.168s0.819-0.105,1.155-0.189
			c0.336-0.084,0.602-0.206,0.798-0.367c0.196-0.161,0.287-0.396,0.273-0.703c0-0.322-0.053-0.578-0.158-0.767
			c-0.105-0.189-0.245-0.336-0.42-0.441c-0.175-0.104-0.378-0.175-0.609-0.21s-0.479-0.053-0.746-0.053
			c-0.588,0-1.05,0.126-1.386,0.378s-0.532,0.672-0.588,1.261H262.321z M269.209,400.387c-0.126,0.112-0.284,0.2-0.473,0.263
			c-0.189,0.063-0.392,0.116-0.609,0.158c-0.217,0.042-0.444,0.077-0.683,0.104c-0.238,0.028-0.476,0.063-0.714,0.105
			c-0.224,0.042-0.444,0.098-0.662,0.168s-0.406,0.164-0.567,0.283c-0.161,0.119-0.291,0.27-0.389,0.451
			c-0.098,0.183-0.147,0.413-0.147,0.693c0,0.266,0.049,0.49,0.147,0.672c0.098,0.183,0.231,0.325,0.399,0.431
			c0.168,0.104,0.364,0.179,0.588,0.221c0.224,0.042,0.455,0.062,0.693,0.062c0.588,0,1.043-0.098,1.365-0.294
			c0.322-0.195,0.56-0.431,0.714-0.703c0.154-0.273,0.249-0.55,0.283-0.83c0.035-0.279,0.053-0.504,0.053-0.672V400.387z"/>
		<path fill="#FFFFFF" d="M277.336,394.843v1.513h0.063c0.378-0.63,0.868-1.089,1.47-1.376c0.602-0.286,1.218-0.431,1.848-0.431
			c0.798,0,1.452,0.109,1.963,0.326c0.511,0.217,0.914,0.518,1.208,0.902c0.294,0.386,0.5,0.854,0.62,1.407
			c0.119,0.554,0.178,1.166,0.178,1.838v6.678h-2.982v-6.132c0-0.896-0.14-1.564-0.42-2.006c-0.28-0.44-0.777-0.661-1.491-0.661
			c-0.812,0-1.4,0.241-1.764,0.725c-0.364,0.482-0.546,1.277-0.546,2.383v5.691H274.5v-10.857H277.336z"/>
		<path fill="#FFFFFF" d="M295.69,394.843v1.471h0.042c0.392-0.561,0.864-0.994,1.417-1.303c0.553-0.308,1.187-0.462,1.9-0.462
			c0.686,0,1.312,0.134,1.879,0.399s0.998,0.735,1.292,1.407c0.322-0.476,0.759-0.896,1.312-1.261
			c0.553-0.363,1.208-0.546,1.963-0.546c0.574,0,1.106,0.07,1.596,0.21c0.489,0.141,0.909,0.364,1.26,0.673
			c0.351,0.308,0.623,0.71,0.819,1.207c0.195,0.497,0.294,1.096,0.294,1.796v7.266h-2.982v-6.153c0-0.363-0.014-0.706-0.042-1.028
			c-0.028-0.322-0.105-0.603-0.231-0.841c-0.126-0.237-0.312-0.427-0.557-0.566c-0.245-0.14-0.578-0.21-0.998-0.21
			s-0.76,0.08-1.019,0.241c-0.259,0.161-0.462,0.371-0.609,0.63c-0.147,0.26-0.245,0.554-0.294,0.882
			c-0.049,0.329-0.074,0.662-0.074,0.998v6.048h-2.982v-6.09c0-0.322-0.007-0.641-0.021-0.956c-0.014-0.314-0.073-0.605-0.179-0.871
			c-0.105-0.266-0.28-0.479-0.525-0.641s-0.605-0.241-1.082-0.241c-0.14,0-0.325,0.031-0.556,0.095
			c-0.231,0.062-0.455,0.182-0.672,0.356c-0.217,0.176-0.402,0.428-0.556,0.756c-0.154,0.329-0.231,0.76-0.231,1.292v6.3h-2.982
			v-10.857H295.69z"/>
		<path fill="#FFFFFF" d="M311.691,398.183c0.041-0.7,0.217-1.281,0.525-1.743c0.307-0.462,0.699-0.833,1.176-1.113
			c0.475-0.28,1.011-0.479,1.605-0.599c0.596-0.118,1.193-0.179,1.796-0.179c0.546,0,1.099,0.039,1.659,0.116
			c0.56,0.077,1.07,0.228,1.533,0.451c0.462,0.224,0.84,0.535,1.134,0.935c0.294,0.398,0.44,0.928,0.44,1.585v5.649
			c0,0.49,0.028,0.959,0.084,1.407c0.057,0.448,0.154,0.784,0.295,1.008h-3.024c-0.056-0.168-0.102-0.339-0.136-0.515
			c-0.035-0.175-0.061-0.354-0.074-0.535c-0.477,0.49-1.036,0.833-1.68,1.028c-0.645,0.196-1.303,0.295-1.975,0.295
			c-0.518,0-1.001-0.063-1.449-0.189c-0.447-0.126-0.84-0.322-1.176-0.588s-0.598-0.602-0.787-1.008s-0.283-0.89-0.283-1.449
			c0-0.616,0.107-1.124,0.325-1.522c0.217-0.399,0.497-0.718,0.84-0.956c0.343-0.237,0.735-0.416,1.177-0.535
			c0.44-0.119,0.885-0.213,1.333-0.283s0.889-0.126,1.323-0.168c0.434-0.042,0.818-0.105,1.154-0.189s0.602-0.206,0.799-0.367
			c0.195-0.161,0.286-0.396,0.272-0.703c0-0.322-0.053-0.578-0.157-0.767c-0.105-0.189-0.246-0.336-0.42-0.441
			c-0.176-0.104-0.379-0.175-0.609-0.21s-0.479-0.053-0.746-0.053c-0.588,0-1.049,0.126-1.385,0.378s-0.533,0.672-0.588,1.261
			H311.691z M318.579,400.387c-0.126,0.112-0.284,0.2-0.473,0.263c-0.188,0.063-0.392,0.116-0.608,0.158
			c-0.218,0.042-0.445,0.077-0.684,0.104c-0.238,0.028-0.476,0.063-0.713,0.105c-0.225,0.042-0.445,0.098-0.662,0.168
			s-0.406,0.164-0.566,0.283c-0.162,0.119-0.291,0.27-0.389,0.451c-0.098,0.183-0.147,0.413-0.147,0.693
			c0,0.266,0.05,0.49,0.147,0.672c0.098,0.183,0.23,0.325,0.398,0.431c0.168,0.104,0.364,0.179,0.588,0.221
			c0.225,0.042,0.455,0.062,0.693,0.062c0.588,0,1.043-0.098,1.365-0.294c0.322-0.195,0.56-0.431,0.714-0.703
			c0.153-0.273,0.249-0.55,0.283-0.83c0.035-0.279,0.053-0.504,0.053-0.672V400.387z"/>
		<path fill="#FFFFFF" d="M327.127,390.706v8.043l3.758-3.906h3.528l-4.095,3.99l4.557,6.867h-3.611l-2.982-4.851l-1.154,1.112
			v3.738h-2.982v-14.994H327.127z"/>
		<path fill="#FFFFFF" d="M339.117,403.097c0.447,0.434,1.092,0.65,1.932,0.65c0.602,0,1.12-0.15,1.555-0.451
			c0.434-0.301,0.699-0.62,0.797-0.956h2.625c-0.42,1.303-1.063,2.233-1.932,2.793c-0.868,0.561-1.918,0.841-3.15,0.841
			c-0.854,0-1.623-0.137-2.31-0.41c-0.687-0.272-1.267-0.661-1.743-1.165c-0.476-0.504-0.844-1.106-1.102-1.807
			c-0.26-0.699-0.389-1.47-0.389-2.31c0-0.812,0.133-1.567,0.398-2.268s0.645-1.306,1.135-1.817
			c0.489-0.511,1.074-0.913,1.753-1.207s1.431-0.441,2.257-0.441c0.925,0,1.729,0.179,2.416,0.536
			c0.686,0.356,1.249,0.837,1.689,1.438c0.441,0.602,0.76,1.288,0.956,2.058c0.196,0.771,0.267,1.575,0.21,2.415h-7.833
			C338.424,401.962,338.669,402.662,339.117,403.097z M342.487,397.384c-0.356-0.392-0.899-0.588-1.628-0.588
			c-0.476,0-0.871,0.081-1.186,0.242c-0.315,0.161-0.567,0.36-0.756,0.598c-0.189,0.238-0.322,0.49-0.399,0.757
			c-0.077,0.266-0.122,0.504-0.137,0.714h4.851C343.093,398.351,342.845,397.776,342.487,397.384z"/>
		<path fill="#FFFFFF" d="M353.9,393.163v-2.457h2.982v2.457H353.9z M356.883,394.843V405.7H353.9v-10.857H356.883z"/>
		<path fill="#FFFFFF" d="M365.199,394.843v1.995h-2.185v5.376c0,0.504,0.084,0.84,0.252,1.009c0.168,0.168,0.504,0.252,1.008,0.252
			c0.168,0,0.329-0.007,0.483-0.021c0.154-0.014,0.301-0.035,0.441-0.062v2.31c-0.252,0.042-0.533,0.07-0.841,0.084
			s-0.608,0.021-0.903,0.021c-0.461,0-0.899-0.032-1.312-0.095c-0.412-0.063-0.776-0.186-1.092-0.368
			c-0.314-0.182-0.563-0.44-0.745-0.776c-0.183-0.336-0.272-0.777-0.272-1.323v-6.405h-1.807v-1.995h1.807v-3.255h2.981v3.255
			H365.199z"/>
		<path fill="#FFFFFF" d="M375.656,403.097c0.448,0.434,1.092,0.65,1.932,0.65c0.603,0,1.121-0.15,1.555-0.451
			s0.699-0.62,0.798-0.956h2.625c-0.42,1.303-1.063,2.233-1.932,2.793c-0.868,0.561-1.919,0.841-3.15,0.841
			c-0.854,0-1.624-0.137-2.31-0.41c-0.687-0.272-1.268-0.661-1.743-1.165s-0.844-1.106-1.103-1.807
			c-0.26-0.699-0.389-1.47-0.389-2.31c0-0.812,0.133-1.567,0.398-2.268c0.267-0.7,0.645-1.306,1.135-1.817
			c0.49-0.511,1.074-0.913,1.754-1.207c0.678-0.294,1.431-0.441,2.257-0.441c0.925,0,1.729,0.179,2.415,0.536
			c0.686,0.356,1.25,0.837,1.69,1.438c0.441,0.602,0.759,1.288,0.956,2.058c0.195,0.771,0.266,1.575,0.209,2.415h-7.832
			C374.963,401.962,375.209,402.662,375.656,403.097z M379.027,397.384c-0.357-0.392-0.9-0.588-1.628-0.588
			c-0.476,0-0.872,0.081-1.187,0.242s-0.566,0.36-0.756,0.598c-0.189,0.238-0.322,0.49-0.398,0.757
			c-0.078,0.266-0.123,0.504-0.137,0.714h4.851C379.633,398.351,379.385,397.776,379.027,397.384z"/>
		<path fill="#FFFFFF" d="M384.393,398.183c0.041-0.7,0.217-1.281,0.525-1.743c0.307-0.462,0.699-0.833,1.176-1.113
			c0.475-0.28,1.011-0.479,1.605-0.599c0.596-0.118,1.193-0.179,1.796-0.179c0.546,0,1.099,0.039,1.659,0.116
			c0.56,0.077,1.07,0.228,1.533,0.451c0.462,0.224,0.84,0.535,1.134,0.935c0.294,0.398,0.44,0.928,0.44,1.585v5.649
			c0,0.49,0.028,0.959,0.084,1.407c0.057,0.448,0.154,0.784,0.295,1.008h-3.024c-0.056-0.168-0.102-0.339-0.136-0.515
			c-0.035-0.175-0.061-0.354-0.074-0.535c-0.477,0.49-1.036,0.833-1.68,1.028c-0.645,0.196-1.303,0.295-1.975,0.295
			c-0.518,0-1.001-0.063-1.449-0.189c-0.447-0.126-0.84-0.322-1.176-0.588s-0.598-0.602-0.787-1.008s-0.283-0.89-0.283-1.449
			c0-0.616,0.107-1.124,0.325-1.522c0.217-0.399,0.497-0.718,0.84-0.956c0.343-0.237,0.735-0.416,1.177-0.535
			c0.44-0.119,0.885-0.213,1.333-0.283s0.889-0.126,1.323-0.168c0.434-0.042,0.818-0.105,1.154-0.189s0.602-0.206,0.799-0.367
			c0.195-0.161,0.286-0.396,0.272-0.703c0-0.322-0.053-0.578-0.157-0.767c-0.105-0.189-0.246-0.336-0.42-0.441
			c-0.176-0.104-0.379-0.175-0.609-0.21s-0.479-0.053-0.746-0.053c-0.588,0-1.049,0.126-1.385,0.378s-0.533,0.672-0.588,1.261
			H384.393z M391.28,400.387c-0.126,0.112-0.284,0.2-0.473,0.263c-0.188,0.063-0.392,0.116-0.608,0.158
			c-0.218,0.042-0.445,0.077-0.684,0.104c-0.238,0.028-0.476,0.063-0.713,0.105c-0.225,0.042-0.445,0.098-0.662,0.168
			s-0.406,0.164-0.566,0.283c-0.162,0.119-0.291,0.27-0.389,0.451c-0.098,0.183-0.147,0.413-0.147,0.693
			c0,0.266,0.05,0.49,0.147,0.672c0.098,0.183,0.23,0.325,0.398,0.431c0.168,0.104,0.364,0.179,0.588,0.221
			c0.225,0.042,0.455,0.062,0.693,0.062c0.588,0,1.043-0.098,1.365-0.294c0.322-0.195,0.56-0.431,0.714-0.703
			c0.153-0.273,0.249-0.55,0.283-0.83c0.035-0.279,0.053-0.504,0.053-0.672V400.387z"/>
		<path fill="#FFFFFF" d="M399.082,403.002c0.133,0.23,0.305,0.42,0.514,0.566c0.211,0.147,0.451,0.256,0.725,0.326
			s0.557,0.104,0.851,0.104c0.21,0,0.431-0.024,0.661-0.073c0.231-0.049,0.441-0.126,0.631-0.231
			c0.188-0.104,0.346-0.244,0.473-0.42c0.125-0.175,0.188-0.396,0.188-0.661c0-0.448-0.298-0.784-0.893-1.008
			s-1.425-0.448-2.488-0.672c-0.435-0.099-0.858-0.214-1.271-0.347c-0.413-0.133-0.781-0.308-1.103-0.525
			c-0.322-0.217-0.581-0.489-0.777-0.818s-0.294-0.731-0.294-1.208c0-0.7,0.137-1.273,0.41-1.722
			c0.272-0.448,0.633-0.802,1.081-1.061s0.952-0.441,1.512-0.546c0.56-0.105,1.134-0.158,1.722-0.158s1.158,0.057,1.712,0.168
			c0.554,0.112,1.046,0.302,1.48,0.567c0.435,0.267,0.794,0.619,1.081,1.061s0.459,0.997,0.516,1.67h-2.836
			c-0.041-0.574-0.259-0.963-0.65-1.166c-0.393-0.203-0.854-0.305-1.387-0.305c-0.168,0-0.35,0.011-0.545,0.032
			c-0.197,0.021-0.375,0.066-0.536,0.136c-0.161,0.07-0.298,0.172-0.409,0.305c-0.112,0.134-0.168,0.312-0.168,0.535
			c0,0.267,0.098,0.483,0.294,0.651s0.451,0.305,0.767,0.409c0.314,0.105,0.675,0.2,1.081,0.284s0.819,0.175,1.239,0.272
			c0.434,0.099,0.857,0.218,1.271,0.357s0.78,0.325,1.103,0.557c0.322,0.23,0.58,0.518,0.777,0.86
			c0.195,0.344,0.293,0.767,0.293,1.271c0,0.714-0.143,1.312-0.43,1.796s-0.662,0.871-1.124,1.165s-0.99,0.501-1.585,0.62
			c-0.596,0.118-1.201,0.179-1.816,0.179c-0.631,0-1.246-0.063-1.849-0.189s-1.138-0.336-1.606-0.63s-0.854-0.683-1.154-1.166
			c-0.302-0.482-0.467-1.088-0.494-1.816h2.835C398.882,402.494,398.948,402.771,399.082,403.002z"/>
		<path fill="#FFFFFF" d="M407.933,393.163v-2.457h2.982v2.457H407.933z M410.915,394.843V405.7h-2.982v-10.857H410.915z"/>
		<path fill="#FFFFFF" d="M416.459,403.097c0.447,0.434,1.092,0.65,1.932,0.65c0.602,0,1.12-0.15,1.555-0.451
			c0.434-0.301,0.699-0.62,0.797-0.956h2.625c-0.42,1.303-1.063,2.233-1.932,2.793c-0.868,0.561-1.918,0.841-3.15,0.841
			c-0.854,0-1.623-0.137-2.31-0.41c-0.687-0.272-1.267-0.661-1.743-1.165c-0.476-0.504-0.844-1.106-1.102-1.807
			c-0.26-0.699-0.389-1.47-0.389-2.31c0-0.812,0.133-1.567,0.398-2.268s0.645-1.306,1.135-1.817
			c0.489-0.511,1.074-0.913,1.753-1.207s1.431-0.441,2.257-0.441c0.925,0,1.729,0.179,2.416,0.536
			c0.686,0.356,1.249,0.837,1.689,1.438c0.441,0.602,0.76,1.288,0.956,2.058c0.196,0.771,0.267,1.575,0.21,2.415h-7.833
			C415.766,401.962,416.011,402.662,416.459,403.097z M419.829,397.384c-0.356-0.392-0.899-0.588-1.628-0.588
			c-0.476,0-0.871,0.081-1.186,0.242c-0.315,0.161-0.567,0.36-0.756,0.598c-0.189,0.238-0.322,0.49-0.399,0.757
			c-0.077,0.266-0.122,0.504-0.137,0.714h4.851C420.435,398.351,420.187,397.776,419.829,397.384z"/>
		<path fill="#FFFFFF" d="M428.156,394.843v2.017h0.041c0.141-0.336,0.329-0.647,0.567-0.935c0.237-0.287,0.511-0.532,0.819-0.735
			c0.307-0.202,0.637-0.36,0.986-0.473c0.35-0.111,0.715-0.168,1.092-0.168c0.196,0,0.413,0.035,0.651,0.105v2.771
			c-0.14-0.027-0.308-0.052-0.504-0.073c-0.196-0.021-0.386-0.031-0.567-0.031c-0.546,0-1.008,0.091-1.386,0.272
			c-0.378,0.183-0.683,0.431-0.913,0.746c-0.231,0.314-0.396,0.683-0.494,1.103s-0.146,0.875-0.146,1.365v4.893h-2.982v-10.857
			H428.156z"/>
		<path fill="#FFFFFF" d="M434.98,402.466v3.234h-3.297v-3.234H434.98z"/>
	</g>
</g>
<g id="Layer_2">
	<g>
		<g enable-background="new    ">
			<path fill="none" stroke="#FFFFFF" stroke-miterlimit="10" d="M197.084,311.184c1.919,0,3.642,0.36,5.166,1.08
				c1.523,0.721,2.813,1.692,3.87,2.916c1.056,1.225,1.866,2.652,2.43,4.284c0.563,1.633,0.846,3.36,0.846,5.185
				c0,1.848-0.283,3.588-0.846,5.22c-0.564,1.632-1.374,3.06-2.43,4.284c-1.056,1.224-2.346,2.19-3.87,2.897
				c-1.524,0.708-3.247,1.062-5.166,1.062c-1.92,0-3.643-0.354-5.166-1.062c-1.524-0.707-2.814-1.674-3.87-2.897
				c-1.057-1.225-1.866-2.652-2.43-4.284s-0.846-3.372-0.846-5.22c0-1.824,0.282-3.552,0.846-5.185
				c0.564-1.632,1.374-3.06,2.43-4.284c1.056-1.224,2.346-2.195,3.87-2.916C193.441,311.544,195.164,311.184,197.084,311.184z
				 M197.084,314.856c-1.368,0-2.551,0.275-3.546,0.827c-0.996,0.553-1.806,1.291-2.43,2.215c-0.625,0.924-1.086,1.974-1.386,3.149
				c-0.3,1.177-0.45,2.376-0.45,3.601c0,1.224,0.149,2.424,0.45,3.6c0.3,1.176,0.762,2.227,1.386,3.15
				c0.624,0.924,1.434,1.662,2.43,2.214c0.996,0.552,2.178,0.828,3.546,0.828c1.368,0,2.55-0.276,3.546-0.828
				c0.996-0.552,1.806-1.29,2.43-2.214s1.086-1.975,1.386-3.15c0.3-1.176,0.45-2.376,0.45-3.6c0-1.225-0.15-2.424-0.45-3.601
				c-0.3-1.176-0.762-2.226-1.386-3.149s-1.434-1.662-2.43-2.215C199.634,315.132,198.452,314.856,197.084,314.856z"/>
			<path fill="none" stroke="#FFFFFF" stroke-miterlimit="10" d="M213.212,311.796h4.5v14.977c0,0.863,0.042,1.74,0.126,2.628
				c0.083,0.888,0.324,1.686,0.72,2.394s0.996,1.29,1.8,1.746c0.804,0.456,1.938,0.684,3.402,0.684c1.463,0,2.598-0.228,3.402-0.684
				c0.804-0.456,1.404-1.038,1.8-1.746c0.396-0.708,0.635-1.506,0.72-2.394c0.084-0.888,0.126-1.765,0.126-2.628v-14.977h4.5v16.452
				c0,1.656-0.252,3.096-0.756,4.32c-0.504,1.224-1.218,2.25-2.142,3.078c-0.924,0.827-2.034,1.445-3.33,1.854
				s-2.736,0.612-4.32,0.612s-3.024-0.204-4.32-0.612c-1.296-0.408-2.406-1.026-3.33-1.854c-0.924-0.828-1.638-1.854-2.142-3.078
				c-0.504-1.225-0.756-2.664-0.756-4.32V311.796z"/>
			<path fill="none" stroke="#FFFFFF" stroke-miterlimit="10" d="M237.043,311.796h20.808v3.888h-8.172V337.5h-4.5v-21.816h-8.136
				V311.796z"/>
			<path fill="none" stroke="#FFFFFF" stroke-miterlimit="10" d="M260.838,311.796h4.5v21.816h13.068v3.888h-17.568V311.796z"/>
			<path fill="none" stroke="#FFFFFF" stroke-miterlimit="10" d="M281.502,311.796h4.5V337.5h-4.5V311.796z"/>
			<path fill="none" stroke="#FFFFFF" stroke-miterlimit="10" d="M291.331,311.796h4.752l11.736,18.937h0.072v-18.937h4.283V337.5
				h-4.752l-11.699-18.9h-0.108v18.9h-4.284V311.796z"/>
			<path fill="none" stroke="#FFFFFF" stroke-miterlimit="10" d="M317.502,311.796h18.504v3.888h-14.004v6.732h12.959v3.672h-12.959
				v7.524h14.256v3.888h-18.756V311.796z"/>
			<path fill="none" stroke="#FFFFFF" stroke-miterlimit="10" d="M340.182,311.796h12.275c2.832,0,4.956,0.612,6.372,1.836
				c1.416,1.225,2.124,2.929,2.124,5.112c0,1.224-0.18,2.238-0.54,3.042c-0.36,0.805-0.78,1.452-1.26,1.944
				c-0.48,0.492-0.954,0.846-1.422,1.062s-0.81,0.36-1.026,0.432v0.072c0.384,0.049,0.798,0.168,1.242,0.36
				c0.443,0.192,0.857,0.498,1.242,0.918c0.383,0.42,0.701,0.966,0.954,1.638c0.252,0.672,0.378,1.512,0.378,2.521
				c0,1.512,0.113,2.886,0.342,4.121c0.229,1.237,0.582,2.119,1.062,2.646h-4.824c-0.336-0.552-0.535-1.164-0.594-1.836
				c-0.061-0.672-0.09-1.319-0.09-1.944c0-1.176-0.072-2.189-0.217-3.042c-0.145-0.852-0.408-1.56-0.792-2.124
				c-0.384-0.563-0.906-0.978-1.565-1.242c-0.66-0.264-1.507-0.396-2.539-0.396h-6.623V337.5h-4.5V311.796z M344.682,323.496h7.38
				c1.44,0,2.532-0.342,3.276-1.026c0.743-0.684,1.115-1.71,1.115-3.078c0-0.815-0.12-1.481-0.359-1.998
				c-0.24-0.516-0.57-0.918-0.99-1.205c-0.42-0.288-0.9-0.48-1.44-0.576s-1.098-0.145-1.674-0.145h-7.308V323.496z"/>
		</g>
		<rect x="369.597" y="311" fill="#FFFFFF" width="59" height="4.5"/>
		<rect x="381.597" y="322" fill="#FFFFFF" width="47" height="4.5"/>
		<rect x="381.597" y="333" fill="#FFFFFF" width="47" height="4.5"/>
	</g>
</g>
</svg>
