<?xml version="1.0" encoding="utf-8"?>
<!-- Generator: Adobe Illustrator 16.0.4, SVG Export Plug-In . SVG Version: 6.00 Build 0)  -->
<!DOCTYPE svg PUBLIC "-//W3C//DTD SVG 1.1//EN" "http://www.w3.org/Graphics/SVG/1.1/DTD/svg11.dtd">
<svg version="1.1" xmlns="http://www.w3.org/2000/svg" xmlns:xlink="http://www.w3.org/1999/xlink" x="0px" y="0px" width="612px"
	 height="193px" viewBox="0 299.5 612 193" enable-background="new 0 299.5 612 193" xml:space="preserve">
<g id="Layer_1">
	<path fill="#56B4D9" d="M0,299.368h612v193.264H0V299.368z"/>
</g>
<g id="Layer_2">
	<g>
		<g>
			<path fill="none" stroke="#FFFFFF" stroke-miterlimit="10" d="M197.084,338.296c1.919,0,3.642,0.36,5.166,1.08
				c1.523,0.72,2.813,1.692,3.87,2.916c1.056,1.224,1.866,2.652,2.43,4.284c0.563,1.632,0.846,3.36,0.846,5.184
				c0,1.849-0.283,3.588-0.846,5.22c-0.564,1.632-1.374,3.06-2.43,4.284c-1.056,1.224-2.346,2.19-3.87,2.898
				c-1.524,0.708-3.247,1.062-5.166,1.062c-1.92,0-3.643-0.354-5.166-1.062c-1.524-0.708-2.814-1.674-3.87-2.898
				c-1.057-1.224-1.866-2.651-2.43-4.284c-0.564-1.632-0.846-3.372-0.846-5.22c0-1.824,0.282-3.552,0.846-5.184
				c0.564-1.632,1.374-3.06,2.43-4.284c1.056-1.224,2.346-2.196,3.87-2.916C193.441,338.656,195.164,338.296,197.084,338.296z
				 M197.084,341.968c-1.368,0-2.551,0.276-3.546,0.828c-0.996,0.552-1.806,1.291-2.43,2.214c-0.625,0.924-1.086,1.975-1.386,3.15
				c-0.3,1.176-0.45,2.376-0.45,3.6s0.149,2.424,0.45,3.6c0.3,1.176,0.762,2.227,1.386,3.15c0.624,0.924,1.434,1.662,2.43,2.214
				c0.996,0.553,2.178,0.828,3.546,0.828c1.368,0,2.55-0.275,3.546-0.828c0.996-0.552,1.806-1.29,2.43-2.214
				c0.624-0.923,1.086-1.974,1.386-3.15c0.3-1.176,0.45-2.376,0.45-3.6s-0.15-2.424-0.45-3.6c-0.3-1.175-0.762-2.226-1.386-3.15
				c-0.624-0.923-1.434-1.662-2.43-2.214C199.634,342.244,198.452,341.968,197.084,341.968z"/>
			<path fill="none" stroke="#FFFFFF" stroke-miterlimit="10" d="M213.212,338.908h4.5v14.976c0,0.864,0.042,1.74,0.126,2.628
				c0.083,0.888,0.324,1.687,0.72,2.394c0.396,0.708,0.996,1.291,1.8,1.746c0.804,0.456,1.938,0.684,3.402,0.684
				c1.463,0,2.598-0.228,3.402-0.684c0.804-0.456,1.404-1.038,1.8-1.746c0.396-0.708,0.635-1.506,0.72-2.394
				c0.084-0.888,0.126-1.764,0.126-2.628v-14.976h4.5v16.452c0,1.656-0.252,3.096-0.756,4.32c-0.504,1.224-1.218,2.25-2.142,3.078
				c-0.924,0.828-2.034,1.446-3.33,1.854s-2.736,0.612-4.32,0.612s-3.024-0.204-4.32-0.612c-1.296-0.408-2.406-1.026-3.33-1.854
				c-0.924-0.828-1.638-1.854-2.142-3.078c-0.504-1.224-0.756-2.664-0.756-4.32V338.908z"/>
			<path fill="none" stroke="#FFFFFF" stroke-miterlimit="10" d="M237.043,338.908h20.808v3.888h-8.172v21.816h-4.5v-21.816h-8.136
				V338.908z"/>
			<path fill="none" stroke="#FFFFFF" stroke-miterlimit="10" d="M260.838,338.908h4.5v21.816h13.068v3.888h-17.568V338.908z"/>
			<path fill="none" stroke="#FFFFFF" stroke-miterlimit="10" d="M281.503,338.908h4.5v25.704h-4.5V338.908z"/>
			<path fill="none" stroke="#FFFFFF" stroke-miterlimit="10" d="M291.33,338.908h4.752l11.736,18.936h0.072v-18.936h4.284v25.704
				h-4.752l-11.7-18.9h-0.108v18.9h-4.284V338.908z"/>
			<path fill="none" stroke="#FFFFFF" stroke-miterlimit="10" d="M317.502,338.908h18.504v3.888h-14.004v6.732h12.96v3.672h-12.96
				v7.524h14.256v3.888h-18.756V338.908z"/>
			<path fill="none" stroke="#FFFFFF" stroke-miterlimit="10" d="M340.182,338.908h12.275c2.832,0,4.956,0.612,6.372,1.836
				c1.416,1.224,2.124,2.929,2.124,5.112c0,1.224-0.18,2.238-0.54,3.042c-0.359,0.804-0.78,1.452-1.26,1.944
				c-0.48,0.492-0.954,0.846-1.422,1.062s-0.811,0.36-1.026,0.432v0.072c0.384,0.048,0.798,0.168,1.242,0.36
				c0.444,0.192,0.857,0.499,1.242,0.918c0.384,0.42,0.702,0.966,0.954,1.638c0.252,0.672,0.378,1.512,0.378,2.52
				c0,1.512,0.113,2.886,0.342,4.122c0.228,1.236,0.582,2.118,1.062,2.646h-4.824c-0.337-0.552-0.534-1.164-0.595-1.836
				c-0.06-0.672-0.09-1.32-0.09-1.944c0-1.176-0.071-2.19-0.216-3.042c-0.144-0.852-0.408-1.56-0.792-2.124
				s-0.906-0.978-1.565-1.242c-0.661-0.264-1.507-0.396-2.538-0.396h-6.624v10.584h-4.5V338.908z M344.682,350.608h7.38
				c1.439,0,2.531-0.342,3.275-1.026c0.744-0.684,1.116-1.71,1.116-3.078c0-0.816-0.12-1.482-0.359-1.998
				c-0.24-0.516-0.571-0.918-0.99-1.206c-0.42-0.288-0.9-0.48-1.44-0.576c-0.54-0.095-1.098-0.144-1.674-0.144h-7.308V350.608z"/>
		</g>
		<rect x="369.597" y="338.112" fill="#FFFFFF" width="59" height="4.5"/>
		<rect x="381.597" y="349.112" fill="#FFFFFF" width="47" height="4.5"/>
		<rect x="381.597" y="360.112" fill="#FFFFFF" width="47" height="4.5"/>
	</g>
</g>
</svg>
