<?xml version="1.0" encoding="utf-8"?>
<!-- Generator: Adobe Illustrator 16.0.4, SVG Export Plug-In . SVG Version: 6.00 Build 0)  -->
<!DOCTYPE svg PUBLIC "-//W3C//DTD SVG 1.1//EN" "http://www.w3.org/Graphics/SVG/1.1/DTD/svg11.dtd">
<svg version="1.1" id="Layer_1" xmlns="http://www.w3.org/2000/svg" xmlns:xlink="http://www.w3.org/1999/xlink" x="0px" y="0px"
	 width="612px" height="193px" viewBox="0 299.5 612 193" enable-background="new 0 299.5 612 193" xml:space="preserve">
<g id="Layer_1_1_">
	<path fill="#68217A" d="M0,299.368h612v193.264H0V299.368z"/>
	<g enable-background="new    ">
		<path fill="#FFFFFF" d="M106.472,380.5l-2.541-10.206h-0.042L101.39,380.5h-3.339l-3.969-14.994h3.297l2.373,10.206h0.042
			l2.604-10.206h3.087l2.562,10.332h0.042l2.457-10.332h3.234l-4.032,14.994H106.472z"/>
		<path fill="#FFFFFF" d="M116.972,377.896c0.448,0.434,1.092,0.65,1.932,0.65c0.602,0,1.12-0.15,1.554-0.451
			c0.434-0.301,0.7-0.62,0.798-0.956h2.625c-0.42,1.303-1.064,2.233-1.932,2.793c-0.869,0.561-1.918,0.841-3.15,0.841
			c-0.854,0-1.624-0.137-2.31-0.41c-0.686-0.272-1.267-0.661-1.743-1.165c-0.476-0.504-0.844-1.106-1.103-1.807
			c-0.259-0.699-0.389-1.47-0.389-2.31c0-0.812,0.133-1.567,0.399-2.268s0.644-1.306,1.134-1.817
			c0.49-0.511,1.074-0.913,1.753-1.207c0.679-0.294,1.431-0.441,2.257-0.441c0.924,0,1.729,0.179,2.415,0.536
			c0.686,0.356,1.25,0.837,1.69,1.438c0.441,0.602,0.759,1.288,0.956,2.058c0.196,0.771,0.266,1.575,0.21,2.415h-7.833
			C116.278,376.762,116.523,377.462,116.972,377.896z M120.342,372.184c-0.357-0.392-0.899-0.588-1.627-0.588
			c-0.476,0-0.872,0.081-1.187,0.242s-0.567,0.36-0.756,0.598c-0.189,0.238-0.322,0.49-0.399,0.757
			c-0.077,0.266-0.123,0.504-0.137,0.714h4.851C120.947,373.15,120.699,372.576,120.342,372.184z"/>
		<path fill="#FFFFFF" d="M129.109,365.506v3.213c0.014,0.462-0.053,0.896-0.2,1.303c-0.147,0.405-0.354,0.763-0.62,1.07
			c-0.266,0.309-0.584,0.563-0.955,0.767c-0.372,0.203-0.774,0.333-1.208,0.389v-1.386c0.532-0.182,0.896-0.452,1.092-0.809
			c0.196-0.357,0.294-0.795,0.294-1.312h-1.386v-3.234H129.109z"/>
		<path fill="#FFFFFF" d="M134.359,380.5l-3.717-10.857h3.129l2.289,7.413h0.042l2.289-7.413h2.961l-3.675,10.857H134.359z"/>
		<path fill="#FFFFFF" d="M145.783,377.896c0.448,0.434,1.092,0.65,1.932,0.65c0.602,0,1.12-0.15,1.554-0.451
			c0.434-0.301,0.7-0.62,0.798-0.956h2.625c-0.42,1.303-1.064,2.233-1.932,2.793c-0.869,0.561-1.918,0.841-3.15,0.841
			c-0.854,0-1.624-0.137-2.31-0.41c-0.686-0.272-1.267-0.661-1.743-1.165c-0.476-0.504-0.844-1.106-1.103-1.807
			c-0.259-0.699-0.389-1.47-0.389-2.31c0-0.812,0.133-1.567,0.399-2.268s0.644-1.306,1.134-1.817
			c0.49-0.511,1.074-0.913,1.753-1.207c0.679-0.294,1.431-0.441,2.257-0.441c0.924,0,1.729,0.179,2.415,0.536
			c0.686,0.356,1.25,0.837,1.69,1.438c0.441,0.602,0.759,1.288,0.956,2.058c0.196,0.771,0.266,1.575,0.21,2.415h-7.833
			C145.09,376.762,145.335,377.462,145.783,377.896z M149.153,372.184c-0.357-0.392-0.899-0.588-1.627-0.588
			c-0.476,0-0.872,0.081-1.187,0.242s-0.567,0.36-0.756,0.598c-0.189,0.238-0.322,0.49-0.399,0.757
			c-0.077,0.266-0.123,0.504-0.137,0.714h4.851C149.759,373.15,149.511,372.576,149.153,372.184z"/>
		<path fill="#FFFFFF" d="M170.741,381.298c-0.119,0.56-0.375,1.082-0.767,1.564c-0.392,0.483-0.959,0.893-1.701,1.229
			s-1.736,0.504-2.982,0.504c-0.532,0-1.075-0.066-1.627-0.199c-0.553-0.133-1.057-0.34-1.512-0.619
			c-0.455-0.28-0.833-0.641-1.134-1.082c-0.301-0.44-0.473-0.97-0.515-1.585h2.961c0.14,0.56,0.413,0.948,0.819,1.165
			c0.406,0.217,0.875,0.325,1.407,0.325c0.84,0,1.453-0.252,1.838-0.756c0.385-0.504,0.57-1.141,0.556-1.911v-1.428h-0.042
			c-0.322,0.574-0.78,0.998-1.375,1.271c-0.595,0.273-1.222,0.409-1.879,0.409c-0.812,0-1.512-0.143-2.1-0.43
			s-1.071-0.68-1.449-1.177c-0.378-0.496-0.655-1.077-0.83-1.742c-0.175-0.665-0.263-1.369-0.263-2.111
			c0-0.699,0.102-1.375,0.305-2.026c0.203-0.65,0.5-1.225,0.893-1.722c0.392-0.497,0.878-0.893,1.459-1.187
			c0.581-0.294,1.25-0.441,2.005-0.441c0.714,0,1.34,0.134,1.879,0.399s0.99,0.714,1.354,1.344h0.042v-1.449h2.835v10.164
			C170.919,380.241,170.86,380.738,170.741,381.298z M166.657,377.686c0.322-0.168,0.588-0.392,0.798-0.672
			c0.21-0.279,0.368-0.599,0.473-0.955c0.105-0.357,0.157-0.731,0.157-1.124c0-0.447-0.042-0.871-0.126-1.271
			c-0.084-0.398-0.224-0.752-0.42-1.061c-0.196-0.308-0.455-0.553-0.777-0.734c-0.322-0.182-0.728-0.273-1.218-0.273
			c-0.42,0-0.78,0.084-1.082,0.252c-0.301,0.168-0.553,0.396-0.756,0.683c-0.203,0.287-0.35,0.616-0.441,0.987
			c-0.091,0.371-0.137,0.76-0.137,1.165c0,0.393,0.039,0.781,0.116,1.166c0.077,0.385,0.21,0.731,0.399,1.039
			c0.189,0.309,0.438,0.561,0.746,0.756c0.308,0.196,0.693,0.295,1.155,0.295C165.964,377.938,166.334,377.854,166.657,377.686z"/>
		<path fill="#FFFFFF" d="M173.376,372.72c0.266-0.707,0.644-1.31,1.134-1.807c0.49-0.496,1.078-0.882,1.764-1.154
			c0.686-0.273,1.456-0.41,2.31-0.41s1.628,0.137,2.321,0.41c0.693,0.272,1.284,0.658,1.774,1.154c0.49,0.497,0.868,1.1,1.134,1.807
			s0.399,1.494,0.399,2.362s-0.133,1.652-0.399,2.352c-0.266,0.7-0.644,1.299-1.134,1.796c-0.49,0.497-1.082,0.879-1.774,1.145
			s-1.467,0.399-2.321,0.399s-1.624-0.134-2.31-0.399c-0.687-0.266-1.274-0.647-1.764-1.145c-0.49-0.497-0.868-1.096-1.134-1.796
			c-0.266-0.699-0.399-1.483-0.399-2.352S173.11,373.427,173.376,372.72z M176.085,376.353c0.084,0.413,0.228,0.784,0.431,1.113
			c0.203,0.329,0.473,0.591,0.809,0.787s0.756,0.294,1.26,0.294c0.504,0,0.928-0.098,1.271-0.294
			c0.343-0.196,0.616-0.458,0.819-0.787c0.203-0.329,0.346-0.7,0.43-1.113s0.126-0.837,0.126-1.271s-0.042-0.861-0.126-1.281
			s-0.228-0.791-0.43-1.112c-0.203-0.322-0.476-0.585-0.819-0.788c-0.343-0.203-0.766-0.305-1.271-0.305
			c-0.504,0-0.924,0.102-1.26,0.305s-0.606,0.466-0.809,0.788c-0.203,0.321-0.346,0.692-0.431,1.112
			c-0.084,0.42-0.126,0.848-0.126,1.281S176.001,375.939,176.085,376.353z"/>
		<path fill="#FFFFFF" d="M192.108,369.643v1.995h-2.184v5.376c0,0.504,0.084,0.84,0.252,1.009c0.168,0.168,0.504,0.252,1.008,0.252
			c0.168,0,0.329-0.007,0.483-0.021c0.154-0.014,0.301-0.035,0.441-0.062v2.31c-0.252,0.042-0.532,0.07-0.84,0.084
			s-0.609,0.021-0.903,0.021c-0.462,0-0.9-0.032-1.312-0.095c-0.413-0.063-0.777-0.186-1.092-0.368
			c-0.315-0.182-0.564-0.44-0.746-0.776c-0.182-0.336-0.273-0.777-0.273-1.323v-6.405h-1.806v-1.995h1.806v-3.255h2.982v3.255
			H192.108z"/>
		<path fill="#FFFFFF" d="M206.976,384.301v-5.166h-0.042c-0.35,0.588-0.84,1.008-1.47,1.26c-0.63,0.253-1.281,0.379-1.953,0.379
			c-0.504,0-1.026-0.095-1.564-0.284c-0.539-0.188-1.033-0.504-1.48-0.944c-0.448-0.441-0.819-1.022-1.113-1.743
			c-0.294-0.721-0.441-1.606-0.441-2.657c0-0.741,0.098-1.462,0.294-2.162c0.196-0.7,0.497-1.319,0.903-1.859
			c0.406-0.538,0.914-0.969,1.522-1.291s1.326-0.483,2.152-0.483c0.672,0,1.305,0.13,1.9,0.389c0.595,0.26,1.061,0.689,1.396,1.292
			h0.042v-1.387h2.835v14.658H206.976z M202.02,376.353c0.084,0.413,0.228,0.784,0.431,1.113c0.203,0.329,0.469,0.591,0.798,0.787
			s0.738,0.294,1.229,0.294s0.899-0.095,1.229-0.283c0.329-0.189,0.595-0.441,0.798-0.756c0.203-0.315,0.35-0.68,0.441-1.093
			c0.091-0.412,0.136-0.843,0.136-1.291c0-0.42-0.045-0.84-0.136-1.26c-0.091-0.42-0.235-0.798-0.431-1.134
			c-0.196-0.337-0.458-0.609-0.788-0.819s-0.724-0.315-1.187-0.315c-0.49,0-0.903,0.099-1.239,0.294
			c-0.336,0.196-0.609,0.459-0.819,0.788s-0.361,0.7-0.452,1.112c-0.091,0.413-0.137,0.844-0.137,1.292
			C201.894,375.516,201.936,375.939,202.02,376.353z"/>
		<path fill="#FFFFFF" d="M219.555,380.5v-1.512h-0.063c-0.378,0.63-0.868,1.085-1.47,1.364c-0.602,0.28-1.218,0.421-1.848,0.421
			c-0.798,0-1.453-0.105-1.963-0.315c-0.511-0.21-0.914-0.507-1.208-0.893c-0.294-0.385-0.501-0.854-0.62-1.407
			c-0.119-0.553-0.179-1.165-0.179-1.837v-6.679h2.982v6.133c0,0.896,0.14,1.564,0.42,2.005c0.28,0.441,0.777,0.662,1.491,0.662
			c0.812,0,1.4-0.242,1.764-0.725c0.364-0.483,0.546-1.277,0.546-2.384v-5.691h2.982V380.5H219.555z"/>
		<path fill="#FFFFFF" d="M227.85,377.896c0.448,0.434,1.092,0.65,1.932,0.65c0.602,0,1.12-0.15,1.554-0.451
			c0.434-0.301,0.7-0.62,0.798-0.956h2.625c-0.42,1.303-1.064,2.233-1.932,2.793c-0.869,0.561-1.918,0.841-3.15,0.841
			c-0.854,0-1.624-0.137-2.31-0.41c-0.686-0.272-1.267-0.661-1.743-1.165c-0.476-0.504-0.844-1.106-1.103-1.807
			c-0.259-0.699-0.389-1.47-0.389-2.31c0-0.812,0.133-1.567,0.399-2.268s0.644-1.306,1.134-1.817
			c0.49-0.511,1.074-0.913,1.753-1.207c0.679-0.294,1.431-0.441,2.257-0.441c0.924,0,1.729,0.179,2.415,0.536
			c0.686,0.356,1.25,0.837,1.69,1.438c0.441,0.602,0.759,1.288,0.956,2.058c0.196,0.771,0.266,1.575,0.21,2.415h-7.833
			C227.157,376.762,227.402,377.462,227.85,377.896z M231.22,372.184c-0.357-0.392-0.899-0.588-1.627-0.588
			c-0.476,0-0.872,0.081-1.187,0.242s-0.567,0.36-0.756,0.598c-0.189,0.238-0.322,0.49-0.399,0.757
			c-0.077,0.266-0.123,0.504-0.137,0.714h4.851C231.826,373.15,231.578,372.576,231.22,372.184z"/>
		<path fill="#FFFFFF" d="M239.221,377.802c0.133,0.23,0.305,0.42,0.515,0.566c0.21,0.147,0.451,0.256,0.724,0.326
			s0.557,0.104,0.851,0.104c0.21,0,0.431-0.024,0.662-0.073s0.441-0.126,0.63-0.231c0.189-0.104,0.347-0.244,0.473-0.42
			c0.126-0.175,0.189-0.396,0.189-0.661c0-0.448-0.298-0.784-0.893-1.008c-0.595-0.224-1.425-0.448-2.488-0.672
			c-0.434-0.099-0.858-0.214-1.271-0.347c-0.413-0.133-0.781-0.308-1.103-0.525c-0.322-0.217-0.581-0.489-0.777-0.818
			c-0.196-0.329-0.294-0.731-0.294-1.208c0-0.7,0.137-1.273,0.41-1.722s0.633-0.802,1.082-1.061
			c0.448-0.259,0.952-0.441,1.512-0.546c0.56-0.105,1.134-0.158,1.722-0.158s1.158,0.057,1.711,0.168
			c0.553,0.112,1.046,0.302,1.48,0.567c0.434,0.267,0.794,0.619,1.082,1.061s0.458,0.997,0.515,1.67h-2.835
			c-0.042-0.574-0.259-0.963-0.651-1.166c-0.392-0.203-0.854-0.305-1.386-0.305c-0.168,0-0.35,0.011-0.546,0.032
			c-0.196,0.021-0.375,0.066-0.536,0.136c-0.161,0.07-0.297,0.172-0.409,0.305c-0.112,0.134-0.168,0.312-0.168,0.535
			c0,0.267,0.098,0.483,0.294,0.651c0.196,0.168,0.451,0.305,0.766,0.409c0.315,0.105,0.675,0.2,1.082,0.284
			s0.819,0.175,1.239,0.272c0.434,0.099,0.857,0.218,1.271,0.357c0.413,0.14,0.78,0.325,1.103,0.557
			c0.322,0.23,0.581,0.518,0.777,0.86c0.196,0.344,0.294,0.767,0.294,1.271c0,0.714-0.144,1.312-0.431,1.796
			s-0.661,0.871-1.124,1.165c-0.462,0.294-0.99,0.501-1.585,0.62c-0.595,0.118-1.2,0.179-1.816,0.179
			c-0.63,0-1.246-0.063-1.848-0.189s-1.137-0.336-1.606-0.63s-0.854-0.683-1.155-1.166c-0.301-0.482-0.466-1.088-0.494-1.816h2.835
			C239.021,377.294,239.088,377.57,239.221,377.802z"/>
		<path fill="#FFFFFF" d="M253.953,369.643v1.995h-2.184v5.376c0,0.504,0.084,0.84,0.252,1.009c0.168,0.168,0.504,0.252,1.008,0.252
			c0.168,0,0.329-0.007,0.483-0.021c0.154-0.014,0.301-0.035,0.441-0.062v2.31c-0.252,0.042-0.532,0.07-0.84,0.084
			s-0.609,0.021-0.903,0.021c-0.462,0-0.9-0.032-1.312-0.095c-0.413-0.063-0.777-0.186-1.092-0.368
			c-0.315-0.182-0.564-0.44-0.746-0.776c-0.182-0.336-0.273-0.777-0.273-1.323v-6.405h-1.806v-1.995h1.806v-3.255h2.982v3.255
			H253.953z"/>
		<path fill="#FFFFFF" d="M255.464,367.963v-2.457h2.982v2.457H255.464z M258.446,369.643V380.5h-2.982v-10.857H258.446z"/>
		<path fill="#FFFFFF" d="M260.861,372.72c0.266-0.707,0.644-1.31,1.134-1.807c0.49-0.496,1.078-0.882,1.764-1.154
			c0.686-0.273,1.456-0.41,2.31-0.41s1.628,0.137,2.321,0.41c0.693,0.272,1.284,0.658,1.774,1.154c0.49,0.497,0.868,1.1,1.134,1.807
			s0.399,1.494,0.399,2.362s-0.133,1.652-0.399,2.352c-0.266,0.7-0.644,1.299-1.134,1.796c-0.49,0.497-1.082,0.879-1.774,1.145
			s-1.467,0.399-2.321,0.399s-1.624-0.134-2.31-0.399c-0.687-0.266-1.274-0.647-1.764-1.145c-0.49-0.497-0.868-1.096-1.134-1.796
			c-0.266-0.699-0.399-1.483-0.399-2.352S260.595,373.427,260.861,372.72z M263.57,376.353c0.084,0.413,0.228,0.784,0.431,1.113
			c0.203,0.329,0.473,0.591,0.809,0.787s0.756,0.294,1.26,0.294c0.504,0,0.928-0.098,1.271-0.294
			c0.343-0.196,0.616-0.458,0.819-0.787c0.203-0.329,0.346-0.7,0.43-1.113s0.126-0.837,0.126-1.271s-0.042-0.861-0.126-1.281
			s-0.228-0.791-0.43-1.112c-0.203-0.322-0.476-0.585-0.819-0.788c-0.343-0.203-0.766-0.305-1.271-0.305
			c-0.504,0-0.924,0.102-1.26,0.305s-0.606,0.466-0.809,0.788c-0.203,0.321-0.346,0.692-0.431,1.112
			c-0.084,0.42-0.126,0.848-0.126,1.281S263.486,375.939,263.57,376.353z"/>
		<path fill="#FFFFFF" d="M276.464,369.643v1.513h0.063c0.378-0.63,0.868-1.089,1.47-1.376c0.602-0.286,1.218-0.431,1.848-0.431
			c0.798,0,1.452,0.109,1.963,0.326c0.511,0.217,0.914,0.518,1.208,0.902c0.294,0.386,0.5,0.854,0.62,1.407
			c0.119,0.554,0.178,1.166,0.178,1.838v6.678h-2.982v-6.132c0-0.896-0.14-1.564-0.42-2.006c-0.28-0.44-0.777-0.661-1.491-0.661
			c-0.812,0-1.4,0.241-1.764,0.725c-0.364,0.482-0.546,1.277-0.546,2.383v5.691h-2.982v-10.857H276.464z"/>
		<path fill="#FFFFFF" d="M288.591,377.802c0.133,0.23,0.305,0.42,0.515,0.566c0.21,0.147,0.451,0.256,0.724,0.326
			s0.557,0.104,0.851,0.104c0.21,0,0.431-0.024,0.662-0.073s0.441-0.126,0.63-0.231c0.189-0.104,0.347-0.244,0.473-0.42
			c0.126-0.175,0.189-0.396,0.189-0.661c0-0.448-0.298-0.784-0.893-1.008c-0.595-0.224-1.425-0.448-2.488-0.672
			c-0.434-0.099-0.858-0.214-1.271-0.347c-0.413-0.133-0.781-0.308-1.103-0.525c-0.322-0.217-0.581-0.489-0.777-0.818
			c-0.196-0.329-0.294-0.731-0.294-1.208c0-0.7,0.137-1.273,0.41-1.722s0.633-0.802,1.082-1.061
			c0.448-0.259,0.952-0.441,1.512-0.546c0.56-0.105,1.134-0.158,1.722-0.158s1.158,0.057,1.711,0.168
			c0.553,0.112,1.046,0.302,1.48,0.567c0.434,0.267,0.794,0.619,1.082,1.061s0.458,0.997,0.515,1.67h-2.835
			c-0.042-0.574-0.259-0.963-0.651-1.166c-0.392-0.203-0.854-0.305-1.386-0.305c-0.168,0-0.35,0.011-0.546,0.032
			c-0.196,0.021-0.375,0.066-0.536,0.136c-0.161,0.07-0.297,0.172-0.409,0.305c-0.112,0.134-0.168,0.312-0.168,0.535
			c0,0.267,0.098,0.483,0.294,0.651c0.196,0.168,0.451,0.305,0.766,0.409c0.315,0.105,0.675,0.2,1.082,0.284
			s0.819,0.175,1.239,0.272c0.434,0.099,0.857,0.218,1.271,0.357c0.413,0.14,0.78,0.325,1.103,0.557
			c0.322,0.23,0.581,0.518,0.777,0.86c0.196,0.344,0.294,0.767,0.294,1.271c0,0.714-0.144,1.312-0.431,1.796
			s-0.661,0.871-1.124,1.165c-0.462,0.294-0.99,0.501-1.585,0.62c-0.595,0.118-1.2,0.179-1.816,0.179
			c-0.63,0-1.246-0.063-1.848-0.189s-1.137-0.336-1.606-0.63s-0.854-0.683-1.155-1.166c-0.301-0.482-0.466-1.088-0.494-1.816h2.835
			C288.392,377.294,288.458,377.57,288.591,377.802z"/>
		<path fill="#FFFFFF" d="M300.781,377.266v3.234h-3.297v-3.234H300.781z"/>
		<path fill="#FFFFFF" d="M307.732,365.506h3.695l3.508,5.922l3.486-5.922h3.674l-5.564,9.24v5.754h-3.297v-5.838L307.732,365.506z"
			/>
		<path fill="#FFFFFF" d="M320.773,372.72c0.266-0.707,0.644-1.31,1.134-1.807c0.489-0.496,1.077-0.882,1.765-1.154
			c0.686-0.273,1.455-0.41,2.309-0.41c0.854,0,1.629,0.137,2.321,0.41c0.692,0.272,1.284,0.658,1.774,1.154
			c0.49,0.497,0.867,1.1,1.134,1.807s0.399,1.494,0.399,2.362s-0.133,1.652-0.399,2.352c-0.267,0.7-0.644,1.299-1.134,1.796
			s-1.082,0.879-1.774,1.145s-1.467,0.399-2.321,0.399c-0.854,0-1.623-0.134-2.309-0.399c-0.688-0.266-1.275-0.647-1.765-1.145
			c-0.49-0.497-0.868-1.096-1.134-1.796c-0.267-0.699-0.399-1.483-0.399-2.352S320.507,373.427,320.773,372.72z M323.482,376.353
			c0.084,0.413,0.227,0.784,0.43,1.113s0.473,0.591,0.809,0.787s0.756,0.294,1.26,0.294c0.505,0,0.928-0.098,1.271-0.294
			c0.343-0.196,0.615-0.458,0.818-0.787s0.347-0.7,0.431-1.113s0.126-0.837,0.126-1.271s-0.042-0.861-0.126-1.281
			s-0.228-0.791-0.431-1.112c-0.203-0.322-0.476-0.585-0.818-0.788c-0.344-0.203-0.767-0.305-1.271-0.305
			c-0.504,0-0.924,0.102-1.26,0.305s-0.605,0.466-0.809,0.788c-0.203,0.321-0.346,0.692-0.43,1.112s-0.127,0.848-0.127,1.281
			S323.398,375.939,323.482,376.353z"/>
		<path fill="#FFFFFF" d="M340.891,380.5v-1.512h-0.062c-0.378,0.63-0.868,1.085-1.47,1.364c-0.603,0.28-1.218,0.421-1.849,0.421
			c-0.797,0-1.452-0.105-1.963-0.315c-0.512-0.21-0.914-0.507-1.207-0.893c-0.295-0.385-0.502-0.854-0.62-1.407
			c-0.119-0.553-0.179-1.165-0.179-1.837v-6.679h2.982v6.133c0,0.896,0.14,1.564,0.42,2.005c0.279,0.441,0.777,0.662,1.49,0.662
			c0.812,0,1.4-0.242,1.765-0.725c0.364-0.483,0.546-1.277,0.546-2.384v-5.691h2.982V380.5H340.891z"/>
		<path fill="#FFFFFF" d="M349.27,365.506v3.213c0.014,0.462-0.053,0.896-0.199,1.303c-0.146,0.405-0.354,0.763-0.619,1.07
			c-0.267,0.309-0.585,0.563-0.955,0.767c-0.372,0.203-0.774,0.333-1.208,0.389v-1.386c0.532-0.182,0.896-0.452,1.092-0.809
			c0.196-0.357,0.294-0.795,0.294-1.312h-1.386v-3.234H349.27z"/>
		<path fill="#FFFFFF" d="M354.52,380.5l-3.717-10.857h3.129l2.289,7.413h0.042l2.289-7.413h2.961l-3.675,10.857H354.52z"/>
		<path fill="#FFFFFF" d="M365.943,377.896c0.448,0.434,1.092,0.65,1.932,0.65c0.603,0,1.121-0.15,1.555-0.451
			s0.699-0.62,0.798-0.956h2.625c-0.42,1.303-1.063,2.233-1.932,2.793c-0.868,0.561-1.919,0.841-3.15,0.841
			c-0.854,0-1.624-0.137-2.31-0.41c-0.687-0.272-1.268-0.661-1.743-1.165s-0.844-1.106-1.103-1.807
			c-0.26-0.699-0.389-1.47-0.389-2.31c0-0.812,0.133-1.567,0.398-2.268c0.267-0.7,0.645-1.306,1.135-1.817
			c0.49-0.511,1.074-0.913,1.754-1.207c0.678-0.294,1.431-0.441,2.257-0.441c0.925,0,1.729,0.179,2.415,0.536
			c0.686,0.356,1.25,0.837,1.69,1.438c0.441,0.602,0.759,1.288,0.956,2.058c0.195,0.771,0.266,1.575,0.209,2.415h-7.832
			C365.25,376.762,365.496,377.462,365.943,377.896z M369.314,372.184c-0.357-0.392-0.9-0.588-1.628-0.588
			c-0.476,0-0.872,0.081-1.187,0.242s-0.566,0.36-0.756,0.598c-0.189,0.238-0.322,0.49-0.398,0.757
			c-0.078,0.266-0.123,0.504-0.137,0.714h4.851C369.92,373.15,369.672,372.576,369.314,372.184z"/>
		<path fill="#FFFFFF" d="M390.902,381.298c-0.119,0.56-0.375,1.082-0.768,1.564c-0.392,0.483-0.959,0.893-1.701,1.229
			s-1.735,0.504-2.981,0.504c-0.532,0-1.075-0.066-1.628-0.199s-1.057-0.34-1.512-0.619c-0.455-0.28-0.833-0.641-1.134-1.082
			c-0.302-0.44-0.473-0.97-0.515-1.585h2.961c0.141,0.56,0.413,0.948,0.819,1.165c0.405,0.217,0.874,0.325,1.407,0.325
			c0.84,0,1.452-0.252,1.838-0.756c0.385-0.504,0.57-1.141,0.556-1.911v-1.428h-0.042c-0.322,0.574-0.78,0.998-1.375,1.271
			c-0.596,0.273-1.223,0.409-1.88,0.409c-0.812,0-1.513-0.143-2.101-0.43s-1.07-0.68-1.448-1.177
			c-0.378-0.496-0.655-1.077-0.829-1.742c-0.176-0.665-0.264-1.369-0.264-2.111c0-0.699,0.102-1.375,0.305-2.026
			c0.203-0.65,0.501-1.225,0.893-1.722c0.393-0.497,0.879-0.893,1.46-1.187s1.249-0.441,2.005-0.441c0.715,0,1.341,0.134,1.88,0.399
			s0.99,0.714,1.354,1.344h0.042v-1.449h2.835v10.164C391.08,380.241,391.021,380.738,390.902,381.298z M386.817,377.686
			c0.321-0.168,0.588-0.392,0.798-0.672c0.21-0.279,0.367-0.599,0.473-0.955c0.105-0.357,0.157-0.731,0.157-1.124
			c0-0.447-0.042-0.871-0.126-1.271c-0.084-0.398-0.225-0.752-0.42-1.061c-0.196-0.308-0.455-0.553-0.777-0.734
			s-0.728-0.273-1.218-0.273c-0.42,0-0.78,0.084-1.081,0.252s-0.554,0.396-0.756,0.683c-0.203,0.287-0.351,0.616-0.441,0.987
			c-0.092,0.371-0.137,0.76-0.137,1.165c0,0.393,0.039,0.781,0.115,1.166c0.077,0.385,0.211,0.731,0.399,1.039
			c0.188,0.309,0.438,0.561,0.745,0.756c0.309,0.196,0.693,0.295,1.155,0.295C386.125,377.938,386.495,377.854,386.817,377.686z"/>
		<path fill="#FFFFFF" d="M393.537,372.72c0.266-0.707,0.645-1.31,1.135-1.807c0.489-0.496,1.077-0.882,1.764-1.154
			c0.686-0.273,1.455-0.41,2.31-0.41s1.627,0.137,2.32,0.41c0.693,0.272,1.285,0.658,1.775,1.154c0.49,0.497,0.867,1.1,1.133,1.807
			s0.4,1.494,0.4,2.362s-0.135,1.652-0.4,2.352c-0.266,0.7-0.643,1.299-1.133,1.796s-1.082,0.879-1.775,1.145
			s-1.466,0.399-2.32,0.399s-1.624-0.134-2.31-0.399c-0.687-0.266-1.274-0.647-1.764-1.145c-0.49-0.497-0.869-1.096-1.135-1.796
			c-0.266-0.699-0.398-1.483-0.398-2.352S393.271,373.427,393.537,372.72z M396.246,376.353c0.084,0.413,0.228,0.784,0.431,1.113
			c0.202,0.329,0.473,0.591,0.809,0.787s0.756,0.294,1.26,0.294c0.505,0,0.928-0.098,1.271-0.294s0.616-0.458,0.819-0.787
			s0.346-0.7,0.43-1.113s0.127-0.837,0.127-1.271s-0.043-0.861-0.127-1.281s-0.227-0.791-0.43-1.112
			c-0.203-0.322-0.477-0.585-0.819-0.788s-0.766-0.305-1.271-0.305c-0.504,0-0.924,0.102-1.26,0.305s-0.606,0.466-0.809,0.788
			c-0.203,0.321-0.347,0.692-0.431,1.112s-0.126,0.848-0.126,1.281S396.162,375.939,396.246,376.353z"/>
		<path fill="#FFFFFF" d="M412.269,369.643v1.995h-2.184v5.376c0,0.504,0.084,0.84,0.252,1.009c0.168,0.168,0.504,0.252,1.008,0.252
			c0.168,0,0.329-0.007,0.483-0.021c0.153-0.014,0.301-0.035,0.44-0.062v2.31c-0.252,0.042-0.532,0.07-0.84,0.084
			s-0.608,0.021-0.902,0.021c-0.463,0-0.9-0.032-1.312-0.095c-0.414-0.063-0.777-0.186-1.093-0.368
			c-0.314-0.182-0.563-0.44-0.745-0.776c-0.183-0.336-0.273-0.777-0.273-1.323v-6.405h-1.806v-1.995h1.806v-3.255h2.982v3.255
			H412.269z"/>
		<path fill="#FFFFFF" d="M419.409,372.982c0.042-0.7,0.217-1.281,0.525-1.743c0.308-0.462,0.699-0.833,1.176-1.113
			c0.476-0.28,1.012-0.479,1.606-0.599c0.595-0.118,1.193-0.179,1.796-0.179c0.546,0,1.099,0.039,1.658,0.116
			c0.561,0.077,1.071,0.228,1.533,0.451s0.84,0.535,1.134,0.935c0.295,0.398,0.441,0.928,0.441,1.585v5.649
			c0,0.49,0.028,0.959,0.084,1.407s0.154,0.784,0.294,1.008h-3.023c-0.057-0.168-0.103-0.339-0.137-0.515
			c-0.035-0.175-0.06-0.354-0.073-0.535c-0.477,0.49-1.037,0.833-1.681,1.028c-0.644,0.196-1.302,0.295-1.974,0.295
			c-0.519,0-1.001-0.063-1.449-0.189s-0.84-0.322-1.176-0.588s-0.599-0.602-0.788-1.008c-0.188-0.406-0.283-0.89-0.283-1.449
			c0-0.616,0.108-1.124,0.325-1.522c0.218-0.399,0.497-0.718,0.841-0.956c0.343-0.237,0.734-0.416,1.176-0.535
			c0.44-0.119,0.885-0.213,1.333-0.283s0.89-0.126,1.323-0.168s0.819-0.105,1.155-0.189s0.602-0.206,0.798-0.367
			s0.287-0.396,0.273-0.703c0-0.322-0.053-0.578-0.158-0.767c-0.104-0.189-0.245-0.336-0.42-0.441
			c-0.175-0.104-0.378-0.175-0.608-0.21c-0.231-0.035-0.48-0.053-0.746-0.053c-0.588,0-1.05,0.126-1.386,0.378
			s-0.532,0.672-0.588,1.261H419.409z M426.298,375.187c-0.127,0.112-0.284,0.2-0.473,0.263c-0.189,0.063-0.393,0.116-0.609,0.158
			s-0.444,0.077-0.683,0.104c-0.238,0.028-0.476,0.063-0.714,0.105c-0.224,0.042-0.444,0.098-0.661,0.168
			c-0.218,0.07-0.406,0.164-0.567,0.283s-0.291,0.27-0.389,0.451c-0.098,0.183-0.146,0.413-0.146,0.693
			c0,0.266,0.049,0.49,0.146,0.672c0.098,0.183,0.231,0.325,0.399,0.431c0.168,0.104,0.363,0.179,0.588,0.221
			c0.224,0.042,0.455,0.062,0.693,0.062c0.588,0,1.042-0.098,1.364-0.294c0.322-0.195,0.561-0.431,0.714-0.703
			c0.154-0.273,0.249-0.55,0.284-0.83c0.034-0.279,0.053-0.504,0.053-0.672V375.187z"/>
		<path fill="#FFFFFF" d="M434.424,369.643v1.513h0.063c0.378-0.63,0.867-1.089,1.47-1.376c0.602-0.286,1.218-0.431,1.848-0.431
			c0.799,0,1.453,0.109,1.964,0.326s0.913,0.518,1.208,0.902c0.294,0.386,0.5,0.854,0.619,1.407
			c0.119,0.554,0.179,1.166,0.179,1.838v6.678h-2.982v-6.132c0-0.896-0.14-1.564-0.42-2.006c-0.28-0.44-0.777-0.661-1.491-0.661
			c-0.812,0-1.399,0.241-1.764,0.725c-0.364,0.482-0.546,1.277-0.546,2.383v5.691h-2.982v-10.857H434.424z"/>
		<path fill="#FFFFFF" d="M446.551,377.802c0.133,0.23,0.305,0.42,0.515,0.566c0.21,0.147,0.451,0.256,0.725,0.326
			c0.272,0.07,0.557,0.104,0.851,0.104c0.21,0,0.43-0.024,0.661-0.073s0.441-0.126,0.63-0.231c0.189-0.104,0.347-0.244,0.473-0.42
			c0.126-0.175,0.188-0.396,0.188-0.661c0-0.448-0.297-0.784-0.892-1.008c-0.596-0.224-1.425-0.448-2.489-0.672
			c-0.434-0.099-0.857-0.214-1.271-0.347s-0.78-0.308-1.103-0.525c-0.322-0.217-0.581-0.489-0.776-0.818
			c-0.196-0.329-0.294-0.731-0.294-1.208c0-0.7,0.136-1.273,0.409-1.722s0.633-0.802,1.081-1.061s0.952-0.441,1.513-0.546
			c0.56-0.105,1.134-0.158,1.722-0.158s1.158,0.057,1.712,0.168c0.553,0.112,1.046,0.302,1.48,0.567
			c0.434,0.267,0.794,0.619,1.081,1.061s0.459,0.997,0.515,1.67h-2.835c-0.042-0.574-0.26-0.963-0.651-1.166
			s-0.854-0.305-1.386-0.305c-0.168,0-0.35,0.011-0.546,0.032c-0.196,0.021-0.375,0.066-0.535,0.136
			c-0.161,0.07-0.298,0.172-0.41,0.305c-0.112,0.134-0.168,0.312-0.168,0.535c0,0.267,0.098,0.483,0.294,0.651
			s0.452,0.305,0.767,0.409c0.315,0.105,0.676,0.2,1.082,0.284c0.405,0.084,0.818,0.175,1.238,0.272
			c0.435,0.099,0.857,0.218,1.271,0.357s0.78,0.325,1.103,0.557c0.322,0.23,0.581,0.518,0.777,0.86
			c0.196,0.344,0.294,0.767,0.294,1.271c0,0.714-0.144,1.312-0.431,1.796s-0.661,0.871-1.123,1.165s-0.991,0.501-1.586,0.62
			c-0.595,0.118-1.2,0.179-1.816,0.179c-0.63,0-1.246-0.063-1.848-0.189c-0.603-0.126-1.138-0.336-1.606-0.63
			c-0.47-0.294-0.854-0.683-1.155-1.166c-0.301-0.482-0.466-1.088-0.493-1.816h2.835
			C446.352,377.294,446.418,377.57,446.551,377.802z"/>
		<path fill="#FFFFFF" d="M464.663,380.5l-1.932-7.287h-0.042l-1.848,7.287h-3.087l-3.444-10.857h3.15l1.995,7.371h0.042
			l1.806-7.371h2.897l1.849,7.351h0.042l1.995-7.351h3.065l-3.423,10.857H464.663z"/>
		<path fill="#FFFFFF" d="M475.604,377.896c0.447,0.434,1.092,0.65,1.932,0.65c0.602,0,1.12-0.15,1.554-0.451
			c0.435-0.301,0.7-0.62,0.799-0.956h2.625c-0.42,1.303-1.064,2.233-1.933,2.793c-0.868,0.561-1.918,0.841-3.149,0.841
			c-0.854,0-1.625-0.137-2.311-0.41c-0.686-0.272-1.267-0.661-1.743-1.165c-0.476-0.504-0.843-1.106-1.103-1.807
			c-0.259-0.699-0.388-1.47-0.388-2.31c0-0.812,0.133-1.567,0.398-2.268s0.644-1.306,1.134-1.817
			c0.49-0.511,1.074-0.913,1.754-1.207c0.679-0.294,1.432-0.441,2.258-0.441c0.924,0,1.729,0.179,2.415,0.536
			c0.686,0.356,1.249,0.837,1.69,1.438c0.44,0.602,0.759,1.288,0.955,2.058c0.196,0.771,0.266,1.575,0.21,2.415h-7.833
			C474.911,376.762,475.156,377.462,475.604,377.896z M478.975,372.184c-0.356-0.392-0.899-0.588-1.627-0.588
			c-0.477,0-0.872,0.081-1.187,0.242c-0.315,0.161-0.567,0.36-0.756,0.598c-0.189,0.238-0.322,0.49-0.399,0.757
			c-0.077,0.266-0.123,0.504-0.137,0.714h4.852C479.58,373.15,479.332,372.576,478.975,372.184z"/>
		<path fill="#FFFFFF" d="M487.301,369.643v2.017h0.042c0.14-0.336,0.329-0.647,0.567-0.935c0.237-0.287,0.511-0.532,0.819-0.735
			c0.308-0.202,0.637-0.36,0.986-0.473c0.35-0.111,0.714-0.168,1.092-0.168c0.196,0,0.413,0.035,0.651,0.105v2.771
			c-0.14-0.027-0.308-0.052-0.504-0.073c-0.196-0.021-0.386-0.031-0.567-0.031c-0.546,0-1.008,0.091-1.386,0.272
			c-0.378,0.183-0.683,0.431-0.913,0.746c-0.231,0.314-0.396,0.683-0.494,1.103s-0.146,0.875-0.146,1.365v4.893h-2.982v-10.857
			H487.301z"/>
		<path fill="#FFFFFF" d="M495.145,377.802c0.133,0.23,0.305,0.42,0.515,0.566c0.21,0.147,0.451,0.256,0.725,0.326
			c0.272,0.07,0.557,0.104,0.851,0.104c0.21,0,0.43-0.024,0.661-0.073s0.441-0.126,0.63-0.231c0.189-0.104,0.347-0.244,0.473-0.42
			c0.126-0.175,0.188-0.396,0.188-0.661c0-0.448-0.297-0.784-0.892-1.008c-0.596-0.224-1.425-0.448-2.489-0.672
			c-0.434-0.099-0.857-0.214-1.271-0.347s-0.78-0.308-1.103-0.525c-0.322-0.217-0.581-0.489-0.776-0.818
			c-0.196-0.329-0.294-0.731-0.294-1.208c0-0.7,0.136-1.273,0.409-1.722s0.633-0.802,1.081-1.061s0.952-0.441,1.513-0.546
			c0.56-0.105,1.134-0.158,1.722-0.158s1.158,0.057,1.712,0.168c0.553,0.112,1.046,0.302,1.48,0.567
			c0.434,0.267,0.794,0.619,1.081,1.061s0.459,0.997,0.515,1.67h-2.835c-0.042-0.574-0.26-0.963-0.651-1.166
			s-0.854-0.305-1.386-0.305c-0.168,0-0.35,0.011-0.546,0.032c-0.196,0.021-0.375,0.066-0.535,0.136
			c-0.161,0.07-0.298,0.172-0.41,0.305c-0.112,0.134-0.168,0.312-0.168,0.535c0,0.267,0.098,0.483,0.294,0.651
			s0.452,0.305,0.767,0.409c0.315,0.105,0.676,0.2,1.082,0.284c0.405,0.084,0.818,0.175,1.238,0.272
			c0.435,0.099,0.857,0.218,1.271,0.357s0.78,0.325,1.103,0.557c0.322,0.23,0.581,0.518,0.777,0.86
			c0.196,0.344,0.294,0.767,0.294,1.271c0,0.714-0.144,1.312-0.431,1.796s-0.661,0.871-1.123,1.165s-0.991,0.501-1.586,0.62
			c-0.595,0.118-1.2,0.179-1.816,0.179c-0.63,0-1.246-0.063-1.848-0.189c-0.603-0.126-1.138-0.336-1.606-0.63
			c-0.47-0.294-0.854-0.683-1.155-1.166c-0.301-0.482-0.466-1.088-0.493-1.816h2.835
			C494.945,377.294,495.012,377.57,495.145,377.802z"/>
		<path fill="#FFFFFF" d="M507.334,377.266v3.234h-3.297v-3.234H507.334z"/>
	</g>
</g>
<g id="Layer_2">
	<g>
		<g enable-background="new    ">
			<path fill="none" stroke="#FFFFFF" stroke-miterlimit="10" d="M197.084,311.184c1.919,0,3.642,0.36,5.166,1.08
				c1.523,0.721,2.813,1.692,3.87,2.916c1.056,1.225,1.866,2.652,2.43,4.284c0.563,1.633,0.846,3.36,0.846,5.185
				c0,1.848-0.283,3.588-0.846,5.22c-0.564,1.632-1.374,3.06-2.43,4.284c-1.056,1.224-2.346,2.19-3.87,2.897
				c-1.524,0.708-3.247,1.062-5.166,1.062c-1.92,0-3.643-0.354-5.166-1.062c-1.524-0.707-2.814-1.674-3.87-2.897
				c-1.057-1.225-1.866-2.652-2.43-4.284s-0.846-3.372-0.846-5.22c0-1.824,0.282-3.552,0.846-5.185
				c0.564-1.632,1.374-3.06,2.43-4.284c1.056-1.224,2.346-2.195,3.87-2.916C193.441,311.544,195.164,311.184,197.084,311.184z
				 M197.084,314.856c-1.368,0-2.551,0.275-3.546,0.827c-0.996,0.553-1.806,1.291-2.43,2.215c-0.625,0.924-1.086,1.974-1.386,3.149
				c-0.3,1.177-0.45,2.376-0.45,3.601c0,1.224,0.149,2.424,0.45,3.6c0.3,1.176,0.762,2.227,1.386,3.15
				c0.624,0.924,1.434,1.662,2.43,2.214c0.996,0.552,2.178,0.828,3.546,0.828c1.368,0,2.55-0.276,3.546-0.828
				c0.996-0.552,1.806-1.29,2.43-2.214s1.086-1.975,1.386-3.15c0.3-1.176,0.45-2.376,0.45-3.6c0-1.225-0.15-2.424-0.45-3.601
				c-0.3-1.176-0.762-2.226-1.386-3.149s-1.434-1.662-2.43-2.215C199.634,315.132,198.452,314.856,197.084,314.856z"/>
			<path fill="none" stroke="#FFFFFF" stroke-miterlimit="10" d="M213.212,311.796h4.5v14.977c0,0.863,0.042,1.74,0.126,2.628
				c0.083,0.888,0.324,1.686,0.72,2.394s0.996,1.29,1.8,1.746c0.804,0.456,1.938,0.684,3.402,0.684c1.463,0,2.598-0.228,3.402-0.684
				c0.804-0.456,1.404-1.038,1.8-1.746c0.396-0.708,0.635-1.506,0.72-2.394c0.084-0.888,0.126-1.765,0.126-2.628v-14.977h4.5v16.452
				c0,1.656-0.252,3.096-0.756,4.32c-0.504,1.224-1.218,2.25-2.142,3.078c-0.924,0.827-2.034,1.445-3.33,1.854
				s-2.736,0.612-4.32,0.612s-3.024-0.204-4.32-0.612c-1.296-0.408-2.406-1.026-3.33-1.854c-0.924-0.828-1.638-1.854-2.142-3.078
				c-0.504-1.225-0.756-2.664-0.756-4.32V311.796z"/>
			<path fill="none" stroke="#FFFFFF" stroke-miterlimit="10" d="M237.043,311.796h20.808v3.888h-8.172V337.5h-4.5v-21.816h-8.136
				V311.796z"/>
			<path fill="none" stroke="#FFFFFF" stroke-miterlimit="10" d="M260.838,311.796h4.5v21.816h13.068v3.888h-17.568V311.796z"/>
			<path fill="none" stroke="#FFFFFF" stroke-miterlimit="10" d="M281.502,311.796h4.5V337.5h-4.5V311.796z"/>
			<path fill="none" stroke="#FFFFFF" stroke-miterlimit="10" d="M291.331,311.796h4.752l11.736,18.937h0.072v-18.937h4.283V337.5
				h-4.752l-11.699-18.9h-0.108v18.9h-4.284V311.796z"/>
			<path fill="none" stroke="#FFFFFF" stroke-miterlimit="10" d="M317.502,311.796h18.504v3.888h-14.004v6.732h12.959v3.672h-12.959
				v7.524h14.256v3.888h-18.756V311.796z"/>
			<path fill="none" stroke="#FFFFFF" stroke-miterlimit="10" d="M340.182,311.796h12.275c2.832,0,4.956,0.612,6.372,1.836
				c1.416,1.225,2.124,2.929,2.124,5.112c0,1.224-0.18,2.238-0.54,3.042c-0.36,0.805-0.78,1.452-1.26,1.944
				c-0.48,0.492-0.954,0.846-1.422,1.062s-0.81,0.36-1.026,0.432v0.072c0.384,0.049,0.798,0.168,1.242,0.36
				c0.443,0.192,0.857,0.498,1.242,0.918c0.383,0.42,0.701,0.966,0.954,1.638c0.252,0.672,0.378,1.512,0.378,2.521
				c0,1.512,0.113,2.886,0.342,4.121c0.229,1.237,0.582,2.119,1.062,2.646h-4.824c-0.336-0.552-0.535-1.164-0.594-1.836
				c-0.061-0.672-0.09-1.319-0.09-1.944c0-1.176-0.072-2.189-0.217-3.042c-0.145-0.852-0.408-1.56-0.792-2.124
				c-0.384-0.563-0.906-0.978-1.565-1.242c-0.66-0.264-1.507-0.396-2.539-0.396h-6.623V337.5h-4.5V311.796z M344.682,323.496h7.38
				c1.44,0,2.532-0.342,3.276-1.026c0.743-0.684,1.115-1.71,1.115-3.078c0-0.815-0.12-1.481-0.359-1.998
				c-0.24-0.516-0.57-0.918-0.99-1.205c-0.42-0.288-0.9-0.48-1.44-0.576s-1.098-0.145-1.674-0.145h-7.308V323.496z"/>
		</g>
		<rect x="369.597" y="311" fill="#FFFFFF" width="59" height="4.5"/>
		<rect x="381.597" y="322" fill="#FFFFFF" width="47" height="4.5"/>
		<rect x="381.597" y="333" fill="#FFFFFF" width="47" height="4.5"/>
	</g>
</g>
</svg>
